<svg width="1113" height="242" viewBox="0 0 1113 242" fill="none" xmlns="http://www.w3.org/2000/svg">
<path d="M119.573 193.037L112.718 197.934V97.0705L82.361 108.822V51.0456L164.618 13.834V158.763L161.68 165.618L158.743 170.514L152.867 175.411L142.095 180.307L132.303 185.203L124.469 190.1L119.573 193.037Z" fill="white"/>
<path d="M8.91699 242V146.058L73.5477 121.552L72.5684 214.581L8.91699 242Z" fill="white"/>
<path d="M5 242V145.054L107.822 103.925V199.892L77.4647 213.602V48.1079L169.515 6M169.515 6L232.187 32.4398V164.639M169.515 6V179.328" stroke="white" stroke-width="9.71494"/>
<path d="M299.78 53.1731H338.484C367.298 53.1731 381.704 62.7954 381.704 82.0401C381.704 88.4908 379.769 93.9739 375.899 98.4894C372.028 103.005 366.222 106.069 358.482 107.682V108.004C366.868 109.079 373.372 112.036 377.995 116.874C382.618 121.604 384.93 127.625 384.93 134.936C384.93 140.634 383.586 145.58 380.898 149.773C378.318 153.858 374.77 157.03 370.254 159.287C365.739 161.545 360.847 163.212 355.579 164.287C350.418 165.254 344.774 165.738 338.646 165.738H299.78V53.1731ZM325.583 71.7189V99.9408H331.066C339.452 99.9408 345.634 98.9195 349.612 96.8767C353.697 94.7265 355.74 90.9636 355.74 85.588C355.74 80.2124 353.697 76.557 349.612 74.6218C345.526 72.6865 339.99 71.7189 333.001 71.7189H325.583ZM325.583 117.519V146.87H331.55C340.796 146.87 347.569 145.687 351.87 143.322C356.17 140.849 358.32 136.925 358.32 131.549C358.32 126.496 356.17 122.895 351.87 120.744C347.569 118.594 340.85 117.519 331.711 117.519H325.583ZM467.738 53.1731L511.926 165.738H483.22L474.028 140.742H429.518L420.164 165.738H393.232L436.775 53.1731H467.738ZM467.577 121.712L460.481 100.908C457.256 91.2324 454.514 81.8788 452.256 72.8478H451.934C449.461 82.2013 446.505 91.5549 443.064 100.908L435.807 121.712H467.577ZM524.673 53.1731H596.599V73.3316H550.799V98.4894H593.373V118.487H550.799V145.418H597.728V165.738H524.673V53.1731ZM618.064 53.1731H653.704C674.131 53.1731 690.366 57.7424 702.407 66.8809C714.556 75.9119 720.63 90.2647 720.63 109.939C720.63 119.508 718.91 127.948 715.47 135.259C712.029 142.462 707.191 148.267 700.956 152.675C694.827 157.083 687.785 160.363 679.829 162.513C671.981 164.663 663.273 165.738 653.704 165.738H618.064V53.1731ZM644.834 73.1703V146.225H650.317C678.916 146.225 693.215 134.076 693.215 109.778C693.215 102.79 692.14 96.8767 689.989 92.0387C687.839 87.0931 684.721 83.3302 680.636 80.7499C676.658 78.0621 672.196 76.1269 667.251 74.9443C662.413 73.7617 656.768 73.1703 650.317 73.1703H644.834ZM802.401 53.1731L846.588 165.738H817.882L808.69 140.742H764.18L754.827 165.738H727.895L771.437 53.1731H802.401ZM802.239 121.712L795.144 100.908C791.918 91.2324 789.177 81.8788 786.919 72.8478H786.596C784.124 82.2013 781.167 91.5549 777.727 100.908L770.47 121.712H802.239Z" fill="white"/>
<path d="M1049.49 163.528C1056.73 156.658 1068.56 150.015 1079.72 145.334C1088.78 141.531 1098.44 137.085 1108.25 134.15" stroke="white" stroke-width="7.77195" stroke-linecap="round" stroke-linejoin="round"/>
<path d="M942.992 149.759C942.182 150.771 941.15 151.601 939.895 152.249C938.64 152.856 937.527 153.16 936.556 153.16C935.989 153.16 935.281 153.18 934.431 153.22C933.581 153.22 932.69 153.241 931.759 153.281C930.869 153.281 929.998 153.301 929.148 153.342C928.298 153.342 927.59 153.342 927.023 153.342C924.432 153.342 921.72 153.565 918.887 154.01C916.094 154.415 913.301 154.961 910.508 155.649C907.715 156.297 904.942 156.985 902.189 157.714C899.477 158.483 896.907 159.191 894.478 159.839C892.049 160.527 889.782 161.073 887.678 161.478C885.613 161.923 883.832 162.146 882.334 162.146C879.906 162.146 878.003 161.579 876.627 160.446C875.291 159.353 874.583 158.037 874.502 156.499C874.421 155.528 874.421 154.374 874.502 153.038C874.583 151.702 874.744 150.245 874.987 148.667C875.23 147.088 875.514 145.428 875.837 143.688C876.161 141.907 876.526 140.105 876.93 138.284C877.173 137.069 877.477 135.491 877.841 133.548C878.246 131.605 878.63 129.581 878.995 127.476C879.359 125.33 879.703 123.266 880.027 121.283C880.351 119.259 880.614 117.599 880.816 116.304C881.262 113.349 881.666 110.697 882.031 108.35C882.435 105.961 882.8 103.674 883.124 101.488C883.488 99.3025 883.832 97.0964 884.156 94.8701C884.48 92.6033 884.783 90.0733 885.067 87.2803C885.309 84.2444 885.471 81.5323 885.552 79.144C885.674 76.7558 885.937 74.7521 886.342 73.1329C886.787 71.4733 887.475 70.2184 888.406 69.3684C889.378 68.4778 890.855 68.0326 892.839 68.0326C893.972 68.0326 894.903 68.2552 895.632 68.7005C896.401 69.1458 897.028 69.7327 897.514 70.4613C898 71.1899 898.364 72.0198 898.607 72.9508C898.85 73.8818 899.012 74.8128 899.093 75.7438C899.133 76.0272 898.991 76.9379 898.668 78.4761C898.384 80.0143 898 81.9371 897.514 84.2444C897.028 86.5112 896.482 89.0411 895.874 91.8342C895.267 94.6272 894.66 97.4607 894.053 100.335C893.486 103.209 892.94 106.002 892.414 108.714C891.928 111.385 891.543 113.733 891.26 115.757C891.017 117.538 890.713 119.461 890.349 121.525C890.025 123.549 889.681 125.614 889.317 127.719C888.953 129.783 888.588 131.848 888.224 133.912C887.86 135.976 887.536 137.919 887.252 139.741C886.969 141.522 886.746 143.141 886.585 144.598C886.463 146.015 886.443 147.149 886.524 147.999C886.605 148.727 886.908 149.395 887.435 150.002C887.961 150.61 888.669 150.913 889.56 150.913C890.531 150.913 891.746 150.792 893.203 150.549C894.701 150.265 896.279 149.921 897.939 149.517C899.639 149.071 901.359 148.606 903.1 148.12C904.841 147.594 906.5 147.108 908.079 146.663C908.443 146.541 909.131 146.38 910.143 146.177C911.196 145.934 912.39 145.671 913.726 145.388C915.102 145.104 916.559 144.821 918.097 144.538C919.636 144.254 921.073 143.991 922.408 143.748C923.785 143.506 924.999 143.303 926.052 143.141C927.104 142.979 927.833 142.898 928.237 142.898C928.764 142.898 929.492 142.838 930.423 142.716C931.395 142.595 932.488 142.494 933.702 142.413C934.916 142.332 936.232 142.291 937.649 142.291C939.065 142.291 940.482 142.433 941.899 142.716C942.628 142.878 943.174 143.242 943.538 143.809C943.903 144.335 944.105 144.963 944.146 145.691C944.186 146.42 944.105 147.149 943.903 147.877C943.7 148.606 943.397 149.233 942.992 149.759ZM989.441 109.2C989.441 108.795 989.28 108.35 988.956 107.864C988.672 107.338 988.288 106.852 987.802 106.407C987.357 105.921 986.851 105.516 986.284 105.192C985.717 104.868 985.191 104.706 984.705 104.706C983.451 104.706 982.277 104.909 981.184 105.314C980.131 105.718 979.14 106.245 978.209 106.892C977.278 107.5 976.407 108.208 975.598 109.017C974.829 109.827 974.14 110.637 973.533 111.446C972.076 113.308 970.578 115.595 969.04 118.307C967.542 120.979 966.166 123.792 964.911 126.747C963.697 129.702 962.685 132.617 961.875 135.491C961.106 138.365 960.722 140.915 960.722 143.141C960.722 144.275 961.228 145.246 962.24 146.056C963.252 146.865 964.608 147.27 966.308 147.27C967.279 147.27 968.433 146.845 969.769 145.995C971.145 145.104 972.562 143.951 974.019 142.534C975.517 141.077 976.974 139.437 978.391 137.616C979.848 135.794 981.123 133.912 982.216 131.969C984.28 128.326 986.001 124.663 987.377 120.979C988.753 117.255 989.441 113.328 989.441 109.2ZM1038.81 106.407C1038.81 106.771 1038.5 107.783 1037.89 109.443C1037.33 111.102 1036.48 113.126 1035.34 115.514C1034.25 117.862 1032.9 120.453 1031.28 123.286C1029.7 126.12 1027.92 128.872 1025.93 131.544C1023.5 134.863 1021.1 137.758 1018.71 140.227C1016.32 142.696 1014.03 144.76 1011.85 146.42C1009.7 148.039 1007.72 149.274 1005.9 150.124C1004.07 150.933 1002.5 151.338 1001.16 151.338C998.934 151.338 997.132 151.035 995.756 150.427C994.38 149.78 993.247 148.828 992.356 147.574C991.465 146.278 990.737 144.659 990.17 142.716C989.644 140.733 989.118 138.405 988.591 135.734H987.741C986.041 138.324 984.179 140.895 982.155 143.445C980.172 145.954 978.087 148.221 975.901 150.245C973.756 152.229 971.53 153.848 969.222 155.103C966.955 156.358 964.709 156.985 962.483 156.985C961.309 156.985 960.074 156.783 958.779 156.378C957.483 155.933 956.289 155.244 955.196 154.313C954.103 153.382 953.193 152.208 952.464 150.792C951.735 149.334 951.371 147.594 951.371 145.57C951.371 143.789 951.594 141.765 952.039 139.498C952.484 137.191 953.091 134.803 953.861 132.333C954.63 129.824 955.5 127.314 956.471 124.804C957.483 122.254 958.536 119.846 959.629 117.579C960.762 115.312 961.896 113.268 963.029 111.446C964.162 109.584 965.255 108.107 966.308 107.014C967.522 105.718 968.939 104.403 970.558 103.067C972.218 101.731 974.039 100.517 976.023 99.424C978.006 98.331 980.131 97.4405 982.398 96.7524C984.665 96.0237 987.053 95.6594 989.563 95.6594C991.587 95.6594 993.105 96.3273 994.117 97.6631C995.129 98.9585 995.837 100.942 996.242 103.614C996.282 103.856 996.424 104.14 996.667 104.464C996.95 104.787 997.234 105.152 997.517 105.557C997.841 105.961 998.124 106.386 998.367 106.832C998.61 107.236 998.731 107.661 998.731 108.107C998.731 108.754 998.59 109.564 998.306 110.535C998.023 111.466 997.699 112.539 997.335 113.754C997.011 114.927 996.707 116.223 996.424 117.639C996.141 119.016 995.999 120.473 995.999 122.011C995.999 124.116 996.019 126.363 996.06 128.751C996.1 131.139 996.323 133.345 996.728 135.369C997.173 137.353 997.881 139.012 998.853 140.348C999.865 141.684 1001.32 142.352 1003.22 142.352C1004.2 142.352 1005.35 141.947 1006.69 141.137C1008.06 140.328 1009.56 139.195 1011.18 137.737C1012.84 136.28 1014.56 134.539 1016.34 132.515C1018.16 130.492 1020.02 128.265 1021.93 125.836C1024.11 123.043 1026.01 120.291 1027.63 117.579C1029.25 114.826 1030.67 112.397 1031.88 110.293C1033.1 108.147 1034.13 106.427 1034.98 105.132C1035.83 103.796 1036.56 103.128 1037.17 103.128H1037.23C1037.91 103.168 1038.36 103.371 1038.56 103.735C1038.77 104.099 1038.87 104.565 1038.87 105.132C1038.87 105.334 1038.87 105.536 1038.87 105.739C1038.87 105.941 1038.85 106.164 1038.81 106.407ZM1081.25 121.161C1081.25 125.209 1080.56 129.216 1079.18 133.183C1077.85 137.11 1076.05 140.874 1073.78 144.477C1071.51 148.039 1068.88 151.358 1065.89 154.435C1062.93 157.511 1059.81 160.203 1056.54 162.51C1053.26 164.858 1049.94 166.74 1046.58 168.157C1043.22 169.614 1040.04 170.485 1037.04 170.768C1036.24 170.728 1035.43 170.545 1034.62 170.222C1033.85 169.898 1033.12 169.513 1032.43 169.068C1031.78 168.623 1031.26 168.117 1030.85 167.55C1030.45 167.024 1030.24 166.538 1030.24 166.093C1030.24 165.364 1030.49 164.656 1030.97 163.968C1031.46 163.32 1032.23 162.713 1033.28 162.146C1035.55 162.146 1037.89 161.822 1040.32 161.175C1042.79 160.527 1045.26 159.596 1047.73 158.382C1050.2 157.167 1052.61 155.71 1054.96 154.01C1057.34 152.269 1059.57 150.326 1061.64 148.181C1063.38 146.4 1064.91 144.477 1066.25 142.413C1067.63 140.308 1068.78 138.183 1069.71 136.037C1070.64 133.892 1071.35 131.767 1071.84 129.662C1072.32 127.516 1072.56 125.513 1072.56 123.651C1072.56 122.801 1072.46 122.011 1072.26 121.283C1072.1 120.554 1071.86 119.947 1071.53 119.461C1071.25 118.935 1070.93 118.53 1070.56 118.247C1070.2 117.963 1069.83 117.822 1069.47 117.822C1067.36 117.822 1065.1 118.429 1062.67 119.643C1060.24 120.817 1057.79 122.396 1055.32 124.379C1052.85 126.363 1050.44 128.65 1048.1 131.24C1045.75 133.831 1043.58 136.543 1041.6 139.377C1039.66 142.21 1037.96 145.064 1036.5 147.938C1035.04 150.771 1034.01 153.423 1033.4 155.892C1033.2 156.823 1032.86 157.795 1032.37 158.807C1031.92 159.819 1031.4 160.729 1030.79 161.539C1030.18 162.348 1029.54 162.976 1028.85 163.421C1028.2 163.907 1027.57 164.049 1026.97 163.846C1025.22 163.198 1024.35 161.417 1024.35 158.503C1024.35 157.815 1024.54 156.6 1024.9 154.86C1025.31 153.079 1025.85 150.933 1026.54 148.424C1027.35 145.266 1028.04 142.392 1028.6 139.802C1029.21 137.171 1029.76 134.6 1030.24 132.09C1030.77 129.54 1031.28 126.95 1031.76 124.319C1032.25 121.647 1032.79 118.672 1033.4 115.393C1034.01 112.276 1034.6 109.341 1035.16 106.589C1035.77 103.796 1036.42 101.063 1037.11 98.3918C1037.79 95.6797 1038.54 92.9878 1039.35 90.3162C1040.16 87.6041 1041.09 84.7908 1042.15 81.8764C1043 79.4476 1043.87 77.4034 1044.76 75.7438C1045.69 74.0437 1046.6 72.6674 1047.49 71.615C1048.38 70.522 1049.25 69.7327 1050.1 69.2469C1050.95 68.7612 1051.74 68.5183 1052.47 68.5183C1052.95 68.5183 1053.44 68.5993 1053.92 68.7612C1054.45 68.8826 1054.94 69.1458 1055.38 69.5505C1055.83 69.9148 1056.19 70.4411 1056.47 71.1292C1056.76 71.7769 1056.9 72.6067 1056.9 73.6187C1056.9 74.995 1056.76 76.3712 1056.47 77.7475C1056.19 79.1238 1055.83 80.5001 1055.38 81.8764C1054.98 83.2122 1054.51 84.5277 1053.99 85.8231C1053.46 87.1184 1052.95 88.3732 1052.47 89.5876C1051.9 91.0044 1051.21 92.583 1050.4 94.3236C1049.59 96.0237 1048.78 97.7643 1047.97 99.5454C1047.16 101.286 1046.4 102.966 1045.67 104.585C1044.98 106.204 1044.43 107.601 1044.03 108.775C1043.87 109.22 1043.62 110.05 1043.3 111.264C1042.97 112.438 1042.61 113.834 1042.21 115.454C1041.84 117.073 1041.44 118.834 1040.99 120.736C1040.55 122.598 1040.12 124.44 1039.72 126.261C1039.35 128.043 1039.01 129.722 1038.68 131.301C1038.4 132.839 1038.2 134.094 1038.08 135.066C1039.29 133.123 1040.73 131.119 1042.39 129.055C1044.09 126.95 1045.91 124.905 1047.85 122.922C1049.8 120.939 1051.82 119.076 1053.92 117.336C1056.03 115.555 1058.11 113.996 1060.18 112.661C1062.28 111.325 1064.31 110.272 1066.25 109.503C1068.19 108.734 1069.97 108.35 1071.59 108.35C1072.2 108.35 1072.83 108.35 1073.48 108.35C1074.12 108.35 1074.73 108.41 1075.3 108.532C1075.86 108.653 1076.37 108.856 1076.82 109.139C1077.3 109.382 1077.71 109.746 1078.03 110.232C1078.52 110.96 1078.96 111.811 1079.37 112.782C1079.77 113.713 1080.11 114.685 1080.4 115.696C1080.68 116.668 1080.88 117.639 1081 118.611C1081.17 119.542 1081.25 120.392 1081.25 121.161Z" fill="white"/>
<path d="M245.019 204.594H254.243C257.237 204.594 259.574 205.054 261.256 205.976C262.96 206.897 263.812 208.486 263.812 210.743C263.812 212.102 263.397 213.276 262.568 214.267C261.739 215.234 260.496 215.879 258.837 216.201V216.27C260.68 216.547 262.085 217.191 263.052 218.205C264.042 219.218 264.537 220.508 264.537 222.074C264.537 223.294 264.238 224.354 263.639 225.252C263.064 226.15 262.257 226.841 261.221 227.325C260.208 227.808 259.114 228.165 257.939 228.396C256.788 228.603 255.544 228.707 254.208 228.707H245.019V204.594ZM251.376 208.946V214.439H252.481C254.231 214.439 255.498 214.22 256.281 213.783C257.064 213.345 257.456 212.62 257.456 211.607C257.456 210.547 257.03 209.845 256.177 209.499C255.348 209.131 254.22 208.946 252.792 208.946H251.376ZM251.376 218.585V224.25H252.343C254.324 224.25 255.763 224.02 256.661 223.559C257.559 223.076 258.008 222.293 258.008 221.21C258.008 220.243 257.571 219.563 256.696 219.172C255.844 218.78 254.496 218.585 252.654 218.585H251.376ZM286.976 208.363V220.633C286.976 226.268 284.032 229.085 278.145 229.085C272.335 229.085 269.43 226.268 269.43 220.633V208.363H274.91V221.158C274.91 222.499 275.162 223.499 275.667 224.16C276.173 224.801 277.008 225.122 278.174 225.122C279.242 225.122 280.078 224.782 280.68 224.102C281.283 223.422 281.584 222.44 281.584 221.158V208.363H286.976ZM297.429 208.363V228.707H291.921V208.363H297.429ZM307.909 208.363V224.597H316.157V228.707H302.372V208.363H307.909ZM319.91 208.363H327.255C329.042 208.363 330.645 208.548 332.063 208.917C333.501 209.286 334.774 209.869 335.881 210.666C337.008 211.443 337.873 212.512 338.475 213.872C339.097 215.212 339.408 216.796 339.408 218.622C339.408 220.352 339.087 221.877 338.446 223.198C337.824 224.5 336.95 225.549 335.823 226.346C334.716 227.142 333.443 227.735 332.005 228.124C330.567 228.512 328.984 228.707 327.255 228.707H319.91V208.363ZM325.477 212.385V224.772H326.38C331.315 224.772 333.783 222.712 333.783 218.593C333.783 216.301 333.132 214.698 331.83 213.784C330.529 212.852 328.712 212.385 326.38 212.385H325.477ZM349.104 208.363V228.707H343.596V208.363H349.104ZM367.978 214.717V208.363H372.846V228.707H366.026L362.441 221.916C360.925 219.021 359.701 216.446 358.769 214.192H358.71C358.807 215.591 358.856 218.176 358.856 221.945V228.707H354.047V208.363H360.954L364.656 215.65C366.055 218.35 367.201 220.789 368.095 222.965H368.153C368.037 220.944 367.978 218.195 367.978 214.717ZM395.568 208.888L395.131 213.172C393.538 212.415 391.692 212.036 389.594 212.036C387.534 212.036 385.882 212.638 384.639 213.843C383.415 215.028 382.803 216.602 382.803 218.564C382.803 220.565 383.337 222.149 384.406 223.315C385.474 224.461 386.961 225.034 388.865 225.034C389.564 225.034 390.264 224.976 390.963 224.859V220.808H387.757V217.019H395.86V228.24C393.858 228.804 391.75 229.085 389.535 229.085C385.513 229.085 382.443 228.211 380.325 226.462C378.208 224.694 377.149 222.139 377.149 218.797C377.149 215.417 378.237 212.774 380.413 210.87C382.608 208.946 385.591 207.985 389.36 207.985C391.498 207.985 393.567 208.286 395.568 208.888ZM434.342 204.594L443.67 228.707H436.622L434.826 223.559H425.775L423.875 228.707H417.381L426.57 204.594H434.342ZM433.341 219.034L432.339 215.787C431.302 212.332 430.669 210.144 430.439 209.223H430.37C430.001 210.789 429.333 212.977 428.366 215.787L427.261 219.034H433.341ZM464.814 208.363V220.633C464.814 226.268 461.87 229.085 455.983 229.085C450.173 229.085 447.268 226.268 447.268 220.633V208.363H452.748V221.158C452.748 222.499 453 223.499 453.505 224.16C454.011 224.801 454.846 225.122 456.012 225.122C457.081 225.122 457.916 224.782 458.518 224.102C459.121 223.422 459.422 222.44 459.422 221.158V208.363H464.814ZM484.448 208.363V212.444L479.085 212.356V228.707H473.548V212.356L468.302 212.444V208.363H484.448ZM497.89 207.985C500.941 207.985 503.398 208.927 505.264 210.812C507.129 212.696 508.062 215.251 508.062 218.477C508.062 221.838 507.119 224.451 505.235 226.317C503.35 228.163 500.775 229.085 497.511 229.085C494.383 229.085 491.896 228.153 490.05 226.288C488.224 224.403 487.311 221.79 487.311 218.448C487.311 215.144 488.253 212.58 490.138 210.753C492.042 208.907 494.626 207.985 497.89 207.985ZM497.569 212.007C496.151 212.007 495.024 212.589 494.189 213.755C493.373 214.921 492.965 216.553 492.965 218.652C492.965 220.633 493.392 222.207 494.247 223.373C495.121 224.519 496.268 225.093 497.686 225.093C499.124 225.093 500.261 224.529 501.096 223.402C501.951 222.256 502.378 220.682 502.378 218.681C502.378 216.543 501.951 214.902 501.096 213.755C500.241 212.589 499.066 212.007 497.569 212.007ZM521.179 208.363L523.074 214.717C523.676 216.718 524.385 219.293 525.201 222.44H525.26C525.978 219.779 526.726 217.204 527.504 214.717L529.456 208.363H537.879V228.707H532.604V222.295C532.604 219.711 532.643 216.339 532.721 212.181H532.662C531.905 214.96 531.021 217.865 530.01 220.896L527.387 228.707H522.549L519.897 220.837C519.197 218.778 518.313 215.893 517.245 212.181H517.186C517.264 216.339 517.303 219.711 517.303 222.295V228.707H512.378V208.363H521.179ZM555.515 208.363L563.384 228.707H557.439L555.923 224.364H548.287L546.684 228.707H541.205L548.958 208.363H555.515ZM554.67 220.546L553.825 217.806C552.951 214.892 552.416 213.046 552.222 212.269H552.164C551.853 213.59 551.289 215.436 550.473 217.806L549.541 220.546H554.67ZM581.383 208.363V212.444L576.02 212.356V228.707H570.483V212.356L565.237 212.444V208.363H581.383ZM590.395 208.363V228.707H584.887V208.363H590.395ZM605.276 207.985C608.327 207.985 610.785 208.927 612.65 210.812C614.515 212.696 615.448 215.251 615.448 218.477C615.448 221.838 614.505 224.451 612.621 226.317C610.736 228.163 608.162 229.085 604.897 229.085C601.769 229.085 599.282 228.153 597.436 226.288C595.61 224.403 594.697 221.79 594.697 218.448C594.697 215.144 595.639 212.58 597.524 210.753C599.428 208.907 602.012 207.985 605.276 207.985ZM604.956 212.007C603.537 212.007 602.41 212.589 601.575 213.755C600.759 214.921 600.351 216.553 600.351 218.652C600.351 220.633 600.778 222.207 601.633 223.373C602.507 224.519 603.654 225.093 605.072 225.093C606.51 225.093 607.647 224.529 608.482 223.402C609.337 222.256 609.764 220.682 609.764 218.681C609.764 216.543 609.337 214.902 608.482 213.755C607.627 212.589 606.452 212.007 604.956 212.007ZM633.695 214.717V208.363H638.562V228.707H631.742L628.157 221.916C626.642 219.021 625.418 216.446 624.485 214.192H624.427C624.524 215.591 624.573 218.176 624.573 221.945V228.707H619.764V208.363H626.671L630.372 215.65C631.771 218.35 632.918 220.789 633.811 222.965H633.87C633.753 220.944 633.695 218.195 633.695 214.717ZM661.887 204.594H678.468V209.223H668.278V214.197H677.847V218.827H668.278V224.043H678.814V228.707H661.887V204.594ZM697.867 214.717V208.363H702.735V228.707H695.915L692.33 221.916C690.814 219.021 689.59 216.446 688.658 214.192H688.599C688.697 215.591 688.745 218.176 688.745 221.945V228.707H683.936V208.363H690.844L694.545 215.65C695.944 218.35 697.09 220.789 697.984 222.965H698.042C697.926 220.944 697.867 218.195 697.867 214.717ZM707.679 208.363H721.668V212.269H713.071V216.466H721.144V220.371H713.071V224.772H721.96V228.707H707.679V208.363ZM726.555 208.363H733.52C734.647 208.363 735.638 208.402 736.493 208.48C737.348 208.558 738.193 208.713 739.029 208.946C739.864 209.18 740.544 209.49 741.069 209.879C741.613 210.248 742.05 210.753 742.38 211.395C742.711 212.036 742.876 212.793 742.876 213.668C742.876 216.369 741.37 217.991 738.358 218.535V218.593C739.116 218.749 739.719 219.03 740.165 219.438C740.632 219.847 741.02 220.439 741.331 221.216L744.187 228.707H738.475L736.814 223.664C736.445 222.557 736.027 221.819 735.561 221.449C735.094 221.061 734.356 220.867 733.346 220.867H732.121V228.707H726.555V208.363ZM732.121 212.24V217.049H733.083C734.56 217.049 735.648 216.854 736.347 216.466C737.066 216.058 737.426 215.417 737.426 214.542C737.426 213.668 737.076 213.065 736.377 212.735C735.697 212.405 734.599 212.24 733.083 212.24H732.121ZM765.144 208.888L764.707 213.172C763.114 212.415 761.268 212.036 759.17 212.036C757.11 212.036 755.459 212.638 754.215 213.843C752.991 215.028 752.379 216.602 752.379 218.564C752.379 220.565 752.913 222.149 753.982 223.315C755.051 224.461 756.537 225.034 758.441 225.034C759.141 225.034 759.84 224.976 760.539 224.859V220.808H757.334V217.019H765.436V228.24C763.435 228.804 761.326 229.085 759.111 229.085C755.089 229.085 752.019 228.211 749.902 226.462C747.784 224.694 746.725 222.139 746.725 218.797C746.725 215.417 747.813 212.774 749.989 210.87C752.185 208.946 755.167 207.985 758.937 207.985C761.074 207.985 763.143 208.286 765.144 208.888ZM768.85 208.363H775.262L777.302 212.473C778.021 213.95 778.662 215.378 779.225 216.757H779.284C779.886 215.319 780.517 213.891 781.178 212.473L783.102 208.363H789.105L781.819 221.275V228.707H776.282V221.129L768.85 208.363ZM810.784 204.594H819.49C821.608 204.594 823.508 204.813 825.19 205.25C826.894 205.688 828.402 206.379 829.715 207.323C831.051 208.244 832.076 209.511 832.79 211.123C833.527 212.712 833.895 214.589 833.895 216.754C833.895 218.803 833.515 220.611 832.755 222.177C832.018 223.72 830.982 224.964 829.646 225.908C828.333 226.853 826.825 227.555 825.12 228.016C823.416 228.476 821.539 228.707 819.49 228.707H810.784V204.594ZM817.382 209.361V224.043H818.453C824.303 224.043 827.228 221.602 827.228 216.719C827.228 214.002 826.456 212.102 824.913 211.019C823.37 209.914 821.217 209.361 818.453 209.361H817.382ZM851.213 208.363L859.082 228.707H853.137L851.621 224.364H843.985L842.382 228.707H836.903L844.655 208.363H851.213ZM850.368 220.546L849.523 217.806C848.648 214.892 848.114 213.046 847.92 212.269H847.861C847.55 213.59 846.987 215.436 846.171 217.806L845.238 220.546H850.368ZM877.081 208.363V212.444L871.718 212.356V228.707H866.18V212.356L860.934 212.444V208.363H877.081ZM893.262 208.363L901.131 228.707H895.186L893.67 224.364H886.034L884.431 228.707H878.952L886.705 208.363H893.262ZM892.417 220.546L891.572 217.806C890.698 214.892 890.163 213.046 889.969 212.269H889.911C889.6 213.59 889.036 215.436 888.22 217.806L887.288 220.546H892.417ZM937.848 204.594L947.176 228.707H940.128L938.332 223.559H929.281L927.381 228.707H920.887L930.076 204.594H937.848ZM936.847 219.034L935.845 215.787C934.808 212.332 934.175 210.144 933.945 209.223H933.876C933.507 210.789 932.839 212.977 931.872 215.787L930.767 219.034H936.847ZM964.706 214.717V208.363H969.573V228.707H962.753L959.168 221.916C957.653 219.021 956.429 216.446 955.496 214.192H955.438C955.535 215.591 955.583 218.176 955.583 221.945V228.707H950.775V208.363H957.682L961.383 215.65C962.782 218.35 963.929 220.789 964.822 222.965H964.881C964.764 220.944 964.706 218.195 964.706 214.717ZM987.195 208.363L995.064 228.707H989.119L987.603 224.364H979.967L978.364 228.707H972.885L980.638 208.363H987.195ZM986.35 220.546L985.505 217.806C984.631 214.892 984.096 213.046 983.902 212.269H983.844C983.533 213.59 982.969 215.436 982.153 217.806L981.221 220.546H986.35ZM1003.91 208.363V224.597H1012.16V228.707H998.374V208.363H1003.91ZM1021.42 208.363V228.707H1015.91V208.363H1021.42ZM1041.05 208.363V212.444L1035.69 212.356V228.707H1030.15V212.356L1024.91 212.444V208.363H1041.05ZM1042.89 208.363H1049.31L1051.35 212.473C1052.07 213.95 1052.71 215.378 1053.27 216.757H1053.33C1053.93 215.319 1054.56 213.891 1055.22 212.473L1057.15 208.363H1063.15L1055.86 221.275V228.707H1050.33V221.129L1042.89 208.363ZM1082.74 208.626L1082.36 212.852C1081.1 212.327 1079.7 212.065 1078.16 212.065C1076.14 212.065 1074.52 212.609 1073.3 213.697C1072.07 214.766 1071.46 216.32 1071.46 218.36C1071.46 220.361 1072.09 221.955 1073.36 223.14C1074.62 224.306 1076.33 224.889 1078.49 224.889C1079.92 224.889 1081.3 224.636 1082.62 224.131L1082.97 228.444C1081.42 228.872 1079.76 229.085 1077.99 229.085C1074.2 229.085 1071.22 228.192 1069.04 226.404C1066.89 224.617 1065.81 221.974 1065.81 218.477C1065.81 215.154 1066.91 212.58 1069.1 210.753C1071.3 208.907 1074.22 207.985 1077.87 207.985C1079.78 207.985 1081.4 208.198 1082.74 208.626ZM1100.35 208.655L1100.03 212.881C1098.46 212.279 1096.9 211.977 1095.37 211.977C1094.41 211.977 1093.64 212.133 1093.04 212.444C1092.45 212.755 1092.16 213.201 1092.16 213.784C1092.16 214.29 1092.38 214.707 1092.83 215.038C1093.28 215.349 1094.2 215.766 1095.6 216.291C1097.5 217.01 1098.91 217.845 1099.83 218.797C1100.76 219.749 1101.23 220.983 1101.23 222.499C1101.23 224.558 1100.47 226.171 1098.95 227.337C1097.46 228.503 1095.4 229.085 1092.77 229.085C1090.6 229.085 1088.55 228.794 1086.62 228.211L1087.06 223.752C1088.96 224.587 1090.78 225.005 1092.51 225.005C1093.5 225.005 1094.28 224.84 1094.84 224.51C1095.41 224.16 1095.69 223.655 1095.69 222.994C1095.69 222.45 1095.42 221.994 1094.87 221.624C1094.35 221.236 1093.39 220.779 1091.99 220.255C1090.24 219.613 1088.9 218.826 1087.96 217.894C1087.03 216.942 1086.57 215.737 1086.57 214.28C1086.57 212.279 1087.34 210.734 1088.9 209.646C1090.45 208.538 1092.44 207.985 1094.87 207.985C1097.05 207.985 1098.87 208.208 1100.35 208.655Z" fill="white"/>
</svg>
