<svg id="Livello_1" data-name="Livello 1" xmlns="http://www.w3.org/2000/svg" viewBox="0 0 3375.14 1017.05"><defs><style>.cls-1{fill:#fff;}.cls-2,.cls-3,.cls-4,.cls-5{fill:#d3ecfb;}.cls-3,.cls-4{stroke:#d3ecfb;}.cls-3,.cls-4,.cls-5{stroke-miterlimit:10;}.cls-3{stroke-width:13.48px;}.cls-4{stroke-width:3.32px;}.cls-5{stroke:#bce3f9;stroke-width:0.2px;}</style></defs><rect class="cls-1" x="2356.14" y="8.05" width="10" height="995"/><path class="cls-1" d="M1287.76,352.22h-61.07V505.44h32.39V454.66h28.68c31.73,0,52.31-22.1,52.31-51.44C1340.07,374.33,1319.49,352.22,1287.76,352.22Zm-6.35,74.21h-22.33v-46h22.33c14.44,0,24.08,8.1,24.08,22.76C1305.49,418.11,1295.85,426.43,1281.41,426.43Zm126.07-31.52c-34.58,0-58.22,24.73-58.22,56.68,0,32.18,23.64,57.12,58.22,57.12s58.43-24.94,58.43-57.12C1465.91,419.64,1442.06,394.91,1407.48,394.91Zm0,84.92c-14.67,0-26.49-10.51-26.49-28.24,0-17.29,11.82-28,26.49-28,14.88,0,26.7,10.72,26.7,28C1434.18,469.32,1422.36,479.83,1407.48,479.83Zm195.65-5.91c0,24.95,16.63,34.79,36.12,34.79a74.7,74.7,0,0,0,18.38-2.39V479.83a33.82,33.82,0,0,1-8.75,1.31c-10.29,0-15.11-4.81-15.11-14.44V423.79h23.86V398.41h-23.86V358.35l-29.54,10.95v29.11H1585v25.38h18.16Zm122.57-79c-30.64,0-54.94,22.54-54.94,56.25,0,37,25.39,57.55,56.26,57.55,21.45,0,34.14-5.68,44-12V470.2c-14,9.19-26.26,13.13-40.71,13.13-13.35,0-26.93-8.1-27.58-22.76h75.73c.22-1.75.44-6.35.44-9C1778.89,418.54,1759.63,394.91,1725.7,394.91ZM1703.37,440c.66-9.63,9-19.7,22.33-19.7,14.67,0,21.67,9.63,22.33,19.7ZM1850,508.71a74.93,74.93,0,0,0,32.82-7.43V469.54c-10.72,7.22-19.91,10.07-31.29,10.07-15.1,0-28.24-9.2-28.24-28,0-18.16,13.14-27.8,28.24-27.8,11.38,0,20.57,3.07,31.29,10.08V402.35a74.92,74.92,0,0,0-32.82-7.44c-33.71,0-58.45,23-58.45,56.68C1791.57,485.52,1816.31,508.71,1850,508.71Zm123.65-67v63.69h30.64V434.08c0-25.38-19-39.17-39.17-39.17-13.57,0-23.21,5.25-30,12v-8.53H1905v107h30.64V434.08c5-6.78,11.82-11.16,20.13-11.16C1966,422.92,1973.67,430.14,1973.67,441.75Zm102.86,9.84c0,33.93,24.74,57.12,58.45,57.12a74.93,74.93,0,0,0,32.82-7.43V469.54c-10.72,7.22-19.91,10.07-31.29,10.07-15.1,0-28.24-9.2-28.24-28,0-18.16,13.14-27.8,28.24-27.8,11.38,0,20.57,3.07,31.29,10.08V402.35a74.92,74.92,0,0,0-32.82-7.44C2101.27,394.91,2076.53,417.89,2076.53,451.59Zm165-56.68c-34.58,0-58.22,24.73-58.22,56.68,0,32.18,23.64,57.12,58.22,57.12S2300,483.77,2300,451.59C2300,419.64,2276.14,394.91,2241.56,394.91Zm0,84.92c-14.66,0-26.48-10.51-26.48-28.24,0-17.29,11.82-28,26.48-28,14.88,0,26.71,10.72,26.71,28C2268.27,469.32,2256.44,479.83,2241.56,479.83Zm-653.74,72.64H1456.94v30h48.81V705.67l33,.22V582.67l49-.22Zm41.58,42.68c-34.58,0-58.22,24.73-58.22,56.68,0,32.17,23.64,57.13,58.22,57.13s58.44-25,58.44-57.13C1687.84,619.88,1664,595.15,1629.4,595.15Zm0,84.92c-14.67,0-26.49-10.51-26.49-28.24,0-17.29,11.82-28,26.49-28,14.88,0,26.7,10.73,26.7,28C1656.1,669.56,1644.28,680.07,1629.4,680.07Zm107.9-65.89V598.64h-30.2v107h30.64V643.73c2.63-10.28,13.35-18,25-18a44.68,44.68,0,0,1,11.16,1.1V595.8a71,71,0,0,0-7.88-.65C1752.4,595.15,1742.55,602.37,1737.3,614.18Zm171.15-19c-13.57,0-23.2,5.25-30,12v-8.54h-30.2v107h30.65V634.32c5-6.78,11.81-11.16,20.13-11.16,10.29,0,18,7.22,18,18.83v63.68h30.64V634.32C1947.63,608.93,1928.59,595.15,1908.45,595.15Zm114.46,0c-34.58,0-58.22,24.73-58.22,56.68,0,32.17,23.64,57.13,58.22,57.13s58.44-25,58.44-57.13C2081.35,619.88,2057.49,595.15,2022.91,595.15Zm0,84.92c-14.66,0-26.48-10.51-26.48-28.24,0-17.29,11.82-28,26.48-28,14.89,0,26.71,10.73,26.71,28C2049.62,669.56,2037.8,680.07,2022.91,680.07ZM850,588.17l-8.33,2v7l8.33-1.61Zm4.83-2.52-3.14.78v8.83l3.14-.61Zm11.18-1.38-8.8,2.14v7.78l8.8-1.7Zm6.16-3-4.46,1.12v9.73l4.46-.87Zm32.71-6.43-11.7,2.77v9.57l11.7-2.26Zm-20.72,5-9.61,2.34v8.65L884.2,589Zm5.89-3-4.26,1.07v10.74l4.26-.82ZM520.63,513.7a2.59,2.59,0,0,0-2.57,1.68h5.14A2.59,2.59,0,0,0,520.63,513.7ZM273.18,364.27l-11.76-11.88-11.76,11.88H251l9.88-8.9,9.88,8.9Zm-57.59-5.42-7.46,5.42H223ZM367.89,467,365,473.63a1,1,0,0,0,0,.78c.2.25.77.34,1.71.25a6.33,6.33,0,0,1,2.45.93,4.75,4.75,0,0,0,2.88.85h.38a5.14,5.14,0,0,0,2.61-.87,5,5,0,0,1,3.14-.92.42.42,0,0,0,.33-.22.82.82,0,0,0,0-.79l-2.83-6.89v-2.68a1.49,1.49,0,0,0-1.28-1.63,14.79,14.79,0,0,1-2.39,0c-1.51-.09-3.08-.16-3.77.48a1.5,1.5,0,0,0-.39,1.17Zm1-3.37h5.91v7.9h-5.91ZM253.47,364.27h14.9l-7.45-5.42ZM904.92,573.13l-11.7,2.93v.09l11.7-2.77ZM203.39,387.73a2.11,2.11,0,0,0,.08,1.8c.49.62,1.87.57,3.07.53h.23a11,11,0,0,1,4.06,1.57,8.76,8.76,0,0,0,5.26,1.53,8.89,8.89,0,0,0,5.35-1.53,10.81,10.81,0,0,1,4-1.56l.07,0,.07,0a2.22,2.22,0,0,0,2.08-.55,1.82,1.82,0,0,0,.12-1.79l-4.91-11.87c0-.39,0-.85,0-1.35.05-2,.12-4.76-1-5.95a2.19,2.19,0,0,0-1.61-.62H211a2.08,2.08,0,0,0-1.6.62c-1.16,1.19-1.09,3.94-1,5.95,0,.5,0,1,0,1.35l0,.19Zm7.45-17.06h9.59v13.06h-9.59ZM747.18,527.15H700.6l-4.27,4.06L700,528h46Zm-343-67.22-6.2-6.28-6.22,6.28h.2l5.73-5.16,5.73,5.16Zm-13.29,14.48c.19.25.76.34,1.7.25a6.27,6.27,0,0,1,2.45.93,5.49,5.49,0,0,0,5.87,0,6.32,6.32,0,0,1,2.35-.92h.08l.08,0a1,1,0,0,0,1-.26.76.76,0,0,0,.05-.79l-2.83-6.87c0-.21,0-.44,0-.7,0-1.08.07-2.71-.54-3.34a.94.94,0,0,0-.73-.27h0a16.16,16.16,0,0,1-2.4,0c-1.51-.09-3.08-.16-3.76.48a1.54,1.54,0,0,0-.4,1.17l0,2.87-2.85,6.68A1,1,0,0,0,390.93,474.41Zm3.84-10.83h5.91v7.9h-5.91Zm-.64-3.65h7.2l-3.6-2.63Zm17.61,25.61.14.15,9,9.22-9.16-10.25c-2.24-.15-26.5-.1-42.7-.08l-7.2,0ZM371.82,457.3l-3.6,2.63h7.19ZM248.75,389.53c.49.62,1.87.57,3.07.53h.23a10.85,10.85,0,0,1,4.07,1.57,10,10,0,0,0,10.62,0c1.59-.88,3.21-1.84,5.34-1.55a1.16,1.16,0,0,0,.87-.56,1.89,1.89,0,0,0,.11-1.76l-4.92-11.89c0-.39,0-.85,0-1.35,0-2,.13-4.76-1-5.95a2.16,2.16,0,0,0-1.61-.62H256.3a2.07,2.07,0,0,0-1.59.62c-1.16,1.19-1.09,3.94-1,5.95,0,.5,0,1,0,1.35l0,.19-5,11.66A2.17,2.17,0,0,0,248.75,389.53Zm7.38-18.86h9.58v13.06h-9.58Zm671,196.91-11.83,3v.29l11.83-3ZM603.36,536l-.61.94,85.62-.94Zm331.85,29.57L929,567.13V580.3l6.24-1.21Zm-23.09,5.78-5.37,1.34V584.6l5.37-1Zm15-2-11.83,3v10.61l11.83-2.29ZM470.32,260.47c-2.17,5.42-2.06,10.84-2,16.54h1.5s0-.06,0-.1c0-.84,0-1.66,0-2.45a42.25,42.25,0,0,1,.1-4.57c.19-6.25,2.57-15.24,12.82-22.37l.31-.23a31.35,31.35,0,0,0,5.26-4.45c5.23-5.79,6-11.49,6-14-4.13,5.28-12.29,11.23-16.35,13.1l.16.17v1.18c4.16-1.06,9.79-6.18,13.24-9.11C486.53,245.4,474.15,249.25,470.32,260.47Zm57.85-72.4a20.21,20.21,0,0,0,11.07-10.84,41.84,41.84,0,0,1-12,7.66,26.41,26.41,0,0,0-2.69,1.29,24.1,24.1,0,0,0-10.08,9.66,25.48,25.48,0,0,1,6-4.17C522.34,190.65,524.8,189.51,528.17,188.07Zm-33,67a48.9,48.9,0,0,0,21.39-28.51c2.49-9.07,9.17-17.87,12.11-21.43A38.1,38.1,0,0,0,508,228.6C503.4,243.61,498.16,251.48,495.18,255.06ZM599.73,538.8H588l.22.73,11.32,0ZM464.34,284.51c-4.48,3.33-5.53,3.19-8,3.95-14.45,2-30.38,2.52-45.09-.8,29.58,48.82,85.45,82.29,142.89,81.7,19.89-.17,40.19-3.23,58.4-10.3,0,0,2.09-.82,3.13-1.25v.27c2.87-1.5,8.42-2.68,10.23-5.2.44-3.45.67-8.12.11-16.56-.83-18-6.22-27.68-10.84-33-2.84-3.13-8.09-7.25-11.53-8.1-1.56-2.47-5.31-5.42-9.09-5.42a6.9,6.9,0,0,0-1.65.2c-2.84-2.32-6.47-2.53-9.66-2.36-4.38-4.41-12-5-15.41-4.61-5.27.38-6.86-9.54-8.12-17.29-.72-4.29,1-11.84,2.36-14.31,2.82.43,5.31,1.76,8.07,2.5,8.62,1.83,16.13,3.8,23.27-.64.55-.48,1.92-.73,1.18-1.55l.39.39c4.88-5.47,2.06-12.43,2.48-18.09,3.88-3.72,3.29-7,2.71-9.65,2-6.36,9.61-5.7,12.52-13.69,1.74-1-6.22-10.23-7.78-13a17.56,17.56,0,0,1-2.29-10.24c.21.11.23-2.63.3-2.65a23.15,23.15,0,0,1,1-3.94,25,25,0,0,0,14.18-6.1,39.18,39.18,0,0,0,10.7-13.56c-1.89-2.09-2.82-3.44-12.16-10.5l5-4.6a3.2,3.2,0,0,0,.7-1l4.83-4.68-2.94-1.12c-16.74-6.34-53.63-32.63-54.09-33-13.09-8-27.52-8.15-39.86-7-.85-5-2.05-10.29-1-18.4,1.69-11.38,10.59-20.85,21.69-26.68l-4.14-15.58c-53.59-6.44-94.18,20-108.85,56.09-13.83,34-8,72.82,14.19,94.46l1.16,1.13c2.64-1.56,6.28-4.53,8.74-6.33l1-.46-.07-.39c-.17-2.21-.25-4.39-.36-6.54-.37-18.79-1-45.95,18.51-48.85-18.38,22.89-20.54,51-1.86,73.88,3.22,5,6.37,9.66,6.82,15.2-.2,9-3.94,16.48-10,23.25l1,1.09.09-.09c8.16-9.21,10-15.84,10.33-24.19-.43-7-4.66-13.05-8.59-18.17-17.07-24.12-15.44-45.93,5.5-72.77-6.63.2-11.6,2.12-15.16,5.89-7,7.37-9.4,22.48-8,50.51l0,.27-5.37,4-.3-.38c-1.8-2.25-4.14-5.35-6.29-8.27A94.09,94.09,0,0,1,441.59,163l-.06-.15,0-.15c2.89-12,8.35-19.23,13.52-24.22-7.57,4.47-14,10.27-17.92,16.32l-1.56,2.39.52-2.58a31.22,31.22,0,0,1,2.51-6.22c3.42-6.51,8.75-11.88,13.63-15.84a66.87,66.87,0,0,0-17.08,17.08l-.83,1.16-.08-1.42a32.69,32.69,0,0,0-.74-4.72c-.87-4.29-1.86-9.15,1.61-12.3,4.66-5.21,13.84-10.82,20.05-13.91-5.64,1.82-12.8,5.26-21.69,10.39l-1,.56.24-1.1a27.65,27.65,0,0,0,.39-5.16c.1-5,.2-10.59,5.89-11.18a138,138,0,0,1,28.61-5.57h-1.79c-8.18,0-18.34.53-25.61,2.53-1.8.8-3.05.87-3.76.16-1.4-1.4.09-5.13,2.34-10.25a36.48,36.48,0,0,0,1.9-4.8l.1-.41.43,0c5.08.42,11.22,1.45,17,2.53-4.38-1.46-9.48-3.3-15.37-5.54l-.64-.25.43-.54A23.72,23.72,0,0,0,445,85.5c1.53-3.33,3.12-6.76,5.32-7,1-.08,2,.51,3,1.88a88.82,88.82,0,0,0,21.72,13.93c-10.58-6.22-17.16-14-21.88-20.43l-.27-.38.35-.3a19.81,19.81,0,0,0,2.46-2.93c1.57-2.13,3.2-4.32,4.95-4.32h.19c1,.09,1.84.88,2.58,2.4,8.94,10.54,20.71,18.24,27.46,22.15C477.61,79.91,470.12,71,466.08,65.22c-.68-1-1.29-1.91-1.88-2.86l-.28-.45.46-.25a18.57,18.57,0,0,0,2.93-2.45c2.13-2,4.13-3.86,5.73-3.33.83.29,1.35,1.16,1.6,2.67C480.29,72,491.55,82.16,498,87.19c-13.08-14-16.56-25.74-17.07-33.35a27.12,27.12,0,0,1-.05-3.23v-.29l.25-.13c14.32-7.58,30.78-11.41,48.91-11.41H531l0,1c-3.58.21-7.13.56-10.55,1-2.35,1.19-9.49,5.62-7.84,15l-1,.24c-.1-.32-2.33-7.58-.45-13.5a103.2,103.2,0,0,0-17.93,5.76c-4.52,14.61,3,31.69,18.93,43.13-2.38-4.44-7.63-15.56-5.27-23.68l.52-1.79.44,1.81c0,.13,3.11,12.43,9.55,22.35-3.15-12.72-2.33-33.73,27.94-50l.57-.3.15.63c3.15,12.81,3.15,12.81,3,13l-.14.13c-25.26,15.26-22.31,33.38-20.35,45.38.14.88.28,1.73.4,2.54l.08.51-.52.06c-4.52.51-19,2.78-27.3,11.27,5.55-3,14.66-6.28,29-7.6.44,0,.72-.06.82-.08h0l.23,1h-.06c-22.9,4.82-32.42,13.19-35.5,16.64-2.09,6.14-2.08,11.53,0,16,2.4-4.26,14.2-22.72,39.12-24.19l2.94-.17-2.72,1.13c-.07,0-6.67,2.81-10.81,6.39-2.44,2.12-3.47,4.08-3.06,5.82,1.18,4.92,13.23,7.93,21.2,9.93,2.42.6,4.5,1.12,6,1.61,7.16,2.12,10.34,3.13,10.66,4.78.12.63-.19,1.23-1,1.84a46.13,46.13,0,0,1-5.14,2.08c-16.62,6.15-60.25,22.31-58,62.11,2.51-6.77,6.49-15.18,9.6-19.19,9.82-13.47,21-21.39,42.06-29.19a127.12,127.12,0,0,0-31.17,13.69l-.56-.82C537.48,158,548.72,152.39,570.68,153a65.87,65.87,0,0,1,12.56,2.62l1.19.37-1.11.56a8.93,8.93,0,0,0-2.2,1.49l-.16.17h-.24a22.06,22.06,0,0,0-6.91.44,34,34,0,0,0-11.33,4.38c-6.51,3.95-9.59,7.54-18.3,21.34-3.52,6.33-10.12,9.64-15.47,11.35a31.85,31.85,0,0,0,14.61-4.87c3.08-1.57,5-4.61,7.12-7.82,1.79-2.78,3.65-5.66,6.29-7.52a22.32,22.32,0,0,1,10-3.54l.3-.06h.27l.22.24.5.7-.85.09-.27,0c-1.13.38-5.86,2.89-6.92,4.55-3.86,4.07-4.11,9.87-4.32,15a23.62,23.62,0,0,0,1,7.37c1.27,4-.58,8.05-2.58,11.9-4.62,7.62-2.33,14.9.4,19.68,6.26,10.93,21.19,19.68,33.46,19.68h.41a17.46,17.46,0,0,0,5.13-.89l2.9-1-2.44,1.86c-5,3.77-8.45,4.11-20.62,2a21.38,21.38,0,0,1-5.63-1.58c-2.34-.88-4.7-1.8-6.56-1.63-1.54,2-3.26,6.36-3.08,16.36l-1,4.72-.64-1.39a66.3,66.3,0,0,1-4.81-19.48c0-.06,0-2.2,0-3.18a26.87,26.87,0,0,1-4.79-2.61A19.86,19.86,0,0,1,538,232.58c-.75-2.35-.79-6.53-.82-9.58V223l-2.71,4.31-.15-1.45a43.69,43.69,0,0,1,2.1-16.88c-3.26,4.56-5.33,10.71-6,18-.19,4.21-.67,9.58-1.85,11.5a52.91,52.91,0,0,0,2.71,14.45,39.58,39.58,0,0,0,11.35,17.06l1.6,1.4-2.06-.54c-10.88-2.85-15.28-6.15-20-11.86-2.68,6.13-7.69,10.51-12.54,14.74a74.32,74.32,0,0,0-8.07,7.79c-9.56,10.29-3.67,30.21,2.17,38l.72,1-1.2-.17c-16.73-2.39-24.35-28.51-25-40-1.45,2.88-4.12,6.41-11.41,8.89a44.58,44.58,0,0,1-10.54,2l-.17-1,2.44-.69c.1,0,10.77-3.39,11.15-12.12l-1.64.8A10.81,10.81,0,0,1,464.34,284.51ZM440.63,168.89c.11-1.28.26-2.55.46-3.78l.32-1.94.65,1.85a78.4,78.4,0,0,0,12,22.28l-.77.65a74.17,74.17,0,0,1-12.65-18.81l-.06-.12Zm141.76-38.14c-10-7.4-17.27-12.74-28.64-15.76l-11.9-2.18,1.71-.63a31.79,31.79,0,0,1,10.68-1.81h.4a30.07,30.07,0,0,1,17.71,5.87c28.15,20.76,42.59,25.08,47.49,26a1.65,1.65,0,0,1,.81,2.84l-6.37,5.83c8.93,6.32,12.38,10.18,12.53,10.34l.22.26-.15.3c-.08.17-8.43,16.72-24,17.75a17.73,17.73,0,0,0-1.6,6.2l-.08,1.84-.86-1.63a11.69,11.69,0,0,1-1.36-5.47c-.27-.29-.09-.86.58-3a18.7,18.7,0,0,0,.56-1.91c1.22-3.3-.67-8.19-2.56-10.29l-1.07-1.19,1.56.37a21.73,21.73,0,0,1,6,3.17,9.75,9.75,0,0,0-3.12-5l-1.17-1.08,1.58.21a30.06,30.06,0,0,0,5.08.21c2.16-.28,4.29-.34,6-.4,1.88-.07,4.21-.14,4.38-.6,0,0,.12-.51-1.74-2.21l.05-.06c-.51-.36-1.56-1.34-4.05-3.68-5.06-4.75-15.08-14.15-17.49-16.23l-.52-.36C589.05,135.67,585.51,133.05,582.39,130.75ZM567,166.39l-3-1.24,3.23.27c9.51.84,12.81-2.32,16-5.36a28.13,28.13,0,0,1,2.87-2.49l.2-.09c2.06-.45,4.32.79,6.47,2a18.91,18.91,0,0,0,3.47,1.61l1.82.54-1.85.43a78.15,78.15,0,0,0-8.69,2.67,40.94,40.94,0,0,1-13.81,2.67A18.9,18.9,0,0,1,567,166.39Zm13.58,28.72a.75.75,0,0,1,0-.82,6.07,6.07,0,0,0,.31-1.56,4.56,4.56,0,0,1-3.33,2.18,3.09,3.09,0,0,1-3.08-1.14,2.56,2.56,0,0,1-.55-1.81,8.91,8.91,0,0,1-9.35-2.63c-.34-.38-.68-.75-.4-1.15s.67-.19,1-.07a2.39,2.39,0,0,0,.5.16c2.2.49,4.21-.36,6.34-1.26a16.25,16.25,0,0,1,5.68-1.59,53.81,53.81,0,0,0-9.17.85l-1.42.21-2.92.4,4.12-2.11c8.48-4.37,9.17-4.73,22.2-.85l.53.16-1.26,3.09a13.61,13.61,0,0,1,1.54-1.26l.58-.39.19.66c2.34,8.11,7.2,16.47,14.44,24.86l.21.25-.13.28a14,14,0,0,1-7.94,7.82l-.45.17-.19-.45c-1.4-3.25-3.94-4.34-7.79-3.33l-.28.07-.2-.2c-1.78-1.78-2.54-3.41-2.26-4.86s1.57-2.65,3.84-3.61c1-.54,1-1.05,1-1.22,0-.67-.68-2.19-5.49-5-3.28-1.53-5.52-3.14-5.57-5.73A.64.64,0,0,1,580.55,195.11Zm14.64,38.16a3.76,3.76,0,0,0-.8.52,3.85,3.85,0,0,1-2.57,1l-.63,0h0l-7.44-1.54,2-.54c.29-.08,7-1.85,9.51-.26l.81.52Zm.84-3.07-.13-.08h0a30.75,30.75,0,0,0-10.3.93l-.17,0-.16-.08a4.71,4.71,0,0,1-1.68-1.86l-.77-1.25,1.23.33c2.93.79,5.09-.7,7.36-2.29a22.47,22.47,0,0,1,3-1.84c1.84-.54,3.3-.14,4,1.09.83,1.49.27,3.66-1.3,5C596.65,230.61,596.18,230.3,596,230.2ZM504.12,288l-.23-.3.22-.3a32,32,0,0,1,5.85-6l.6-.48.2.74a24.74,24.74,0,0,0,12.67,16.08l2.05,1.09-2.31-.14c-.52,0-1-.1-1.5-.17C515.73,297.24,509.51,295.07,504.12,288Zm44.77,45.11c24.63-18,25.25-32.12,18.61-47.8l-.14-.33.26-.24c.93-.84,5.7,0,5.9.07,2.18.41,7.3,1.65,9,4.43,1.61-.17,7.21-.6,10,2.49a6.13,6.13,0,0,1,4.69.14,10.94,10.94,0,0,1,5.47,4.73c2.11.29,4.55,1.68,7.28,4.16,4.39,2.88,14.74,12.63,14.74,40.09,0,4.93-.06,8.68-.18,11.48v.31l-.28.13c-2.3,1.06-4.38,2-6.36,2.78l-.67.28,0-.73c-.41-18.87-2.43-27.51-6.69-36.44a72.33,72.33,0,0,1,.82,39.2l-.07.26-.25.08c-3.6,1.29-7.46,2.51-11.46,3.62l-.84.23.22-.84c6.58-25.82.76-47.53-4.57-58.11,3.8,24.93-.81,47.87-6.56,61.32l-.11.25-.26,0a165,165,0,0,1-21.18,2.75l-.91.06.44-.8c12.82-23.13,18.46-34.89,18.65-50.53a113.56,113.56,0,0,0-.65-14.53c.27,27.76-12.24,54-31.85,64.81a14.75,14.75,0,0,1-6.32,1.24,51,51,0,0,1-7.7-.82,50.37,50.37,0,0,0-6.22-.74l-3.06-.11,2.93-.88c8.55-2.54,48.67-17.09,44.63-64.8A63.77,63.77,0,0,1,558,339.06c-20.19,20-48.5,19.19-68.7,15l-.11,0a165.8,165.8,0,0,1-64.47-50.31c-.4-.5-.79-1-1.17-1.51l.41-.3.4-.3,1.16,1.51C453.56,338.55,529.87,346.63,548.89,333.11ZM584.34,536H528.78l-.74,1.12,28.53.31,28.51-.31ZM840.18,389.5a1.12,1.12,0,0,0,.92.55l.69,0a5.72,5.72,0,0,1,3.79,1.19c3,2.53,9.22,2.53,12.25,0,1.42-1.26,3.45-1.24,5.08-1.18h.51a1.12,1.12,0,0,0,.92-.55,1.89,1.89,0,0,0,.12-1.76l-5-11.89v-4.68c0-1.79-1.17-3.24-2.61-3.24H847.6c-1.44,0-2.62,1.45-2.62,3.24l0,4.87-4.88,11.69A1.88,1.88,0,0,0,840.18,389.5Zm7.24-18.83H857v13.06h-9.58Zm-661.62,210,11.82,2.29V572.33l-11.82-3Zm-8.08-1.56L184,580.3V567.13l-6.24-1.57Zm85.33-29.85a10.29,10.29,0,0,1,6.72,2.39v-.73h3.92L263,543.5l-10.64,7.4h3.91v.74a10.34,10.34,0,0,1,6.74-2.4Zm-55,24.14,11.71,2.77v-.09L208,573.13Zm631.32,16.15-1.35.34v8l1.35-.26Zm-638.51-6,5.36,1V572.68l-5.36-1.34Zm-15-15.7,11.82,3v-.29l-11.82-3Zm42.93,10.45v0l2.19.53ZM332.41,430.16l4.12,5v-6.27c0-3.21,0-6.48,0-8.38l-.79-2-3.75.58.41,1ZM325.92,403l4,8.95-1.74-.84,1.38,2.94,1.7-2.06L326,401.4l-1.58,1.5.44,1Zm468.57,13.55,3.77-4.63V392l-3.77,8.74Zm-588.7,127-10.65,7.4h3.92v.74a10.64,10.64,0,0,1,13.46,0v-.74h3.91ZM326.33,421c0-3.8.08-10.08-.05-11l0-.05-1.33-3.37-1.07.17v14.44l2.45,3.37C326.31,423.81,326.32,422.67,326.33,421Zm-7.69-20.26L314.87,392v19.88l3.77,4.63Zm468.16,9.4v14.47l2.46-3.4V406.81l-1.06-.17ZM411.1,635l.66-.52,0-.07ZM273.61,597.66l1.35.26v-8l-1.35-.34Zm137.84-5.17-.58.56.62-.48Zm-134.8,5.76,6.62,1.28v-6.38l-6.62-1.61Zm134.83-1.72,0-.06-.59-1.49-2.16.34Zm-9.73-4.24-.78-2-2.78.43Zm-161-1,4.47.87v-9.73l-4.47-1.12Zm6.16,1.2,8.81,1.7v-7.78l-8.81-2.14ZM274.38,562h-2.73v-1.25c-.09-3.63-1.66-6.45-4.42-7.92a8.06,8.06,0,0,0-3.57-.86c3.58.3,7.25,3.12,7.41,9.13l.08.14-.14.26c-.19.35-.2.39-10.77.32h-4.32l-.44,1.74h7.22V583h-7.45l2,.5h5.42v1.37l.46.12v-1.49H271v3.44l2,.49,1.4.35ZM271,583h-7.86V563.58H271Zm-42.29,6,9.61,1.86v-8.65l-9.61-2.34Zm-5.89-1.14,4.27.82V577.91l-4.27-1.07Zm35.22,6.82,3.14.61v-8.83l-3.14-.78Zm4.83.94,8.34,1.61v-7l-8.34-2ZM208,585l11.71,2.26v-9.57L208,574.88Zm216.75-49,85.62.94-.62-.94Zm283.9-61.56c.12.17.58.21,1,.26a3.21,3.21,0,0,1,2.1.72,6,6,0,0,0,6.69,0,4.25,4.25,0,0,1,3-.72h.28a.4.4,0,0,0,.34-.22.85.85,0,0,0,.06-.79l-2.9-6.89v-2.68a1.49,1.49,0,0,0-1.28-1.63,16,16,0,0,1-2.39,0c-.52,0-1-.05-1.53-.05a3.33,3.33,0,0,0-2.23.53,1.48,1.48,0,0,0-.39,1.17l0,2.87-2.79,6.68C708.53,474.16,708.61,474.37,708.66,474.43Zm3.78-10.85h5.91v7.9h-5.91Zm28.87-6.28-3.6,2.63h7.2ZM594.17,514.19a3.55,3.55,0,0,0-3.35,0,1.87,1.87,0,0,0-.92,1.19h5.19A1.86,1.86,0,0,0,594.17,514.19Zm106.47-39.41.17-.24,2.36-5.54Zm.75,10.76h.2l49.76-.94-7.2,0c-16.2,0-40.47-.07-42.71.08l-9.16,10.25Zm40.1,45.68H700.57l-8.38,7.42,0,0c-.42.18-1.79.18-6.42.19s-11.87,0-20,0l-37,0H601.5l-.86,1.34h-.09v.67h.26l-.11.59c-.18,1-1.21,5.86-3.31,5.86-1.23,0-1.82-1.33-2.35-2.51-.41-.91-.83-1.86-1.37-1.86s-.93.92-1.31,1.81c-.52,1.19-1.1,2.56-2.42,2.56-2,0-2.64-4.51-2.81-5.89l-.06-.56h.14v-.67h-.14l-.88-1.34H526.93l-.87,1.34h-.14v.67h.14l-.07.56c-.16,1.38-.85,5.89-2.81,5.89-1.31,0-1.9-1.37-2.42-2.56-.38-.89-.77-1.81-1.3-1.81s-1,1-1.38,1.86c-.52,1.18-1.11,2.51-2.34,2.51-2.11,0-3.13-4.88-3.32-5.86l-.11-.59h.26v-.67h-.08l-.88-1.34H421.15l-.14-.1-6.3-5.57-2.15-1.91H371.63l16.68,11.95v-.55H398v7.51l8.7,6.23V540.54c0-1.91.67-3.2,1.65-3.2,1.26,0,2,2,2,5.39,0,3.92-.41,19.57-.41,19.73l0,1-.77-.57c-.58-.43-1.5-1.13-2.53-1.92C405,559.62,402.9,558,401.5,557v4.23l18,12.32.49,0h19.76l-.28-23.1h-12l-.9-2.63h15.27l-.8,2.17v23.56h19.06l-.29-23.1h-12l-.9-2.63h15.27l-.81,2.17v23.56h19.07l-.28-23.1h-12l-.9-2.63h15.27l-.81,2.17v23.56H500.9l-.28-23.1h-12l-.89-2.63H503l-.8,2.17v23.56h10.87v-1.4h12v1.4h16l-.29-23.1h-12l-.89-2.63H543.2l-.8,2.17v23.56h28.33V550.06l-.8-2.17h15.26l-.9,2.63h-12l-.29,23.1h16v-1.4h12v1.4h10.87V550.06l-.8-2.17h15.26l-.89,2.63h-12l-.28,23.1h19.06V550.06l-.8-2.17h15.27l-.9,2.63h-12l-.28,23.1h19.06V550.06l-.8-2.17h15.27l-.9,2.63h-12l-.29,23.1h19.07V550.06l-.8-2.17h15.26l-.89,2.63h-12l-.28,23.1,20.24,0,18-12.32v-4.2c-2.52,1.84-6.45,4.83-7.7,5.77l-.78.6,0-1c0-.16-.41-15.81-.41-19.73,0-3.37.75-5.39,2-5.39,1,0,1.64,1.29,1.64,3.2v15.82l8.7-6.23v-7.51h9.73v.55Zm-349.77.48a7.47,7.47,0,0,1,1.07-.09c3.22,0,5.84,2.13,5.84,4.74v.5h-2.51l-.11-.35a5.4,5.4,0,0,0-4.28-3.81l-3.55-.49Zm5.54,9.93h-9l-1.58-4.35h12.15Zm20.64,7.82-.64-.4c-.28.25-1.55,2.07-1.55,14v.5h-1.59V548.35a7.37,7.37,0,0,1,.36-2.61c.35-.9.92-1,1.22-1,1.15,0,2.2,1.83,2.2,3.85Zm1.58-10.25a2.15,2.15,0,0,0-1.51.47,2.26,2.26,0,0,0-.6,1.73v.51H413.8v-.51a3.43,3.43,0,0,1,1.12-2.84c1-.77,2.51-.88,4.73-.34Zm10.7,14h8.37V570h-8.37Zm20.38,0h8.37V570h-8.37Zm20.38,0h8.37V570h-8.37Zm20.38,0h8.37V570h-8.37Zm-64.95-5.48.53-.78c1.75-2.61,4.13-5.68,5.31-5.27.44.14.67.57.67,1.29,0,3.1,2.91,2.81,2.91,0,0-.76.23-1.21.68-1.34l.21,0c1.23,0,3.32,2.84,4.9,5.31l.49.77Zm20.38,0,.53-.78c1.75-2.61,4.15-5.68,5.31-5.27.44.14.67.57.67,1.29,0,3.1,2.91,2.81,2.91,0,0-.76.23-1.21.69-1.34a.64.64,0,0,1,.2,0c1.24,0,3.32,2.85,4.9,5.31l.49.77Zm20.38,0,.53-.78c1.75-2.61,4.12-5.68,5.31-5.27.45.14.67.57.67,1.29,0,3.1,2.91,2.81,2.91,0,0-.76.23-1.21.69-1.34a.64.64,0,0,1,.2,0c1.24,0,3.32,2.85,4.9,5.31l.49.77Zm20.38,0,.53-.78c1.75-2.61,4.14-5.68,5.31-5.27.45.14.67.57.67,1.29,0,3.1,2.91,2.81,2.91,0,0-.76.23-1.21.69-1.34a.64.64,0,0,1,.2,0c1.24,0,3.32,2.85,4.9,5.31l.49.77ZM523,570.11h-8.15v-1.44H523Zm8.49-16.93h8.37V570H531.5ZM581.63,570h-8.37V553.18h8.37ZM527.69,547.7l.53-.78c1.75-2.61,4.12-5.68,5.31-5.27.45.14.68.57.68,1.29,0,3.1,2.9,2.81,2.9,0,0-.76.23-1.21.69-1.34a.69.69,0,0,1,.2,0c1.24,0,3.33,2.85,4.9,5.31l.49.77Zm28.87-.66h0l-12.16-.81,0-1h24.33l0,1Zm13.17.66.5-.77c1.57-2.46,3.66-5.31,4.89-5.31l.21,0c.45.13.68.58.68,1.34,0,2.76,2.91,3,2.91,0,0-.72.23-1.15.68-1.29,1.14-.39,3.55,2.66,5.3,5.27l.53.78Zm28.53,22.41h-8.14v-1.44h8.14Zm23.55-.1h-8.37V553.18h8.37ZM609.92,547.7l.49-.77c1.57-2.46,3.66-5.31,4.9-5.31l.2,0c.45.13.69.58.69,1.34,0,2.76,2.9,3,2.9,0,0-.72.23-1.15.68-1.29,1.18-.39,3.55,2.66,5.31,5.27l.52.78ZM642.19,570h-8.37V553.18h8.37Zm20.38,0H654.2V553.18h8.37ZM683,570h-8.37V553.18H683ZM630.29,547.7l.5-.77c1.57-2.46,3.66-5.31,4.9-5.31a.64.64,0,0,1,.2,0c.46.13.69.58.69,1.34,0,2.76,2.9,3,2.9,0,0-.72.23-1.15.68-1.29,1.15-.39,3.56,2.66,5.31,5.27l.53.78Zm20.39,0,.49-.77c1.57-2.46,3.66-5.31,4.9-5.31a.69.69,0,0,1,.2,0c.46.13.69.58.69,1.34,0,2.76,2.9,3,2.9,0,0-.72.23-1.15.68-1.29,1.17-.39,3.56,2.66,5.31,5.27l.53.78Zm20.38,0,.49-.77c1.57-2.46,3.66-5.31,4.9-5.31a.69.69,0,0,1,.2,0c.46.13.69.58.69,1.34,0,2.76,2.9,3,2.9,0,0-.72.23-1.15.68-1.29a.71.71,0,0,1,.21,0c1.26,0,3.44,2.84,5.1,5.3l.53.78Zm28,15.89h-1.59v-.5c0-12-1.27-13.79-1.55-14l-.64.4v-.9c0-2,1-3.85,2.19-3.85.31,0,.87.14,1.23,1a7.61,7.61,0,0,1,.36,2.61Zm.32-21.68h-3.57v-.51a2.22,2.22,0,0,0-.61-1.73,2.13,2.13,0,0,0-1.51-.47l-.17-1c2.21-.54,3.76-.43,4.74.34a3.43,3.43,0,0,1,1.12,2.84Zm16.72-8.76a6.79,6.79,0,0,1,5.37-1.45l3.09.56-3.11.43a5.38,5.38,0,0,0-4.28,3.81l-.12.35h-2.49v-.49A4.08,4.08,0,0,1,716.05,533.15Zm-.19,8.48-1.57-4.35h12.15l-1.58,4.35Zm-4.06-81.7H719l-3.6-2.63Zm9.52,0-6.21-6.28-6.21,6.28h.77l5.73-5.16,5.73,5.16ZM416.79,531.21l-4.26-4.06H365.94l1.13.81h46Zm170.33,57,.67-.48c.16-.1.31-.21.43-.3H524.91l.32.23c.4.27.64.44.78.55ZM420,589.9l-.42,85.94h84.33v-9.23h2.72V593l-.74-5.58H422A2.34,2.34,0,0,0,420,589.9Zm18.35,78.64-.57-.07c-1.49-.16-2.06.67-2.87,2s-1.6,2.77-3.72,2.77h-.34c-2.08,0-3-1.53-3.68-2.77s-1.33-2.24-2.87-2l-.56.07v-1.82H438.3Zm-13.43-22.31v-1.76h12.25v1.76h-1.94v19.15h-8.37V646.23Zm15.05-6.48-.91-.42c-.19,0-.61,0-1.14,0-3.34.09-3.72,0-3.93-.4l-.14-.28.34-.5h1.09L431,636.32l-4.18,1.83c.8,0,1.09.12,1.24.4l.14.28-.35.52h-7.11l10.33-5.24.22.1,4,2.06c1.82,1,3.66,1.9,4.05,2.09.23,0,.28.15.33.36l.09.32.29.13h-.26Zm-15.05-35.91v-1.76h12.25v1.76h-1.94V623h-8.37V603.84Zm13.43,20.5v1.82l-.57-.07-.39,0c-1.21,0-1.75.82-2.48,2.08s-1.6,2.77-3.72,2.77h-.33c-2.08,0-3-1.54-3.69-2.77-.81-1.39-1.4-2.29-2.87-2l-.56.07v-1.82ZM459,668.54l-.57-.07c-1.51-.16-2.06.67-2.87,2s-1.6,2.77-3.72,2.77h-.34c-2.08,0-3-1.53-3.68-2.77s-1.34-2.24-2.87-2l-.56.07v-1.82H459ZM445.6,646.23v-1.76h12.25v1.76h-1.94v19.15h-8.37V646.23Zm34.16,22.31-.57-.07c-1.49-.16-2.06.67-2.87,2s-1.6,2.77-3.72,2.77h-.33c-2.08,0-3-1.53-3.69-2.77s-1.37-2.21-2.87-2l-.56.07v-1.82h14.61Zm-13.43-22.31v-1.76h12.25v1.76h-1.94v19.15h-8.37V646.23Zm34.16,22.31-.57-.07c-1.5-.16-2.06.67-2.87,2s-1.6,2.77-3.72,2.77H493c-2.08,0-3-1.53-3.68-2.77s-1.35-2.24-2.87-2l-.56.07v-1.82h14.61Zm-13.43-22.31v-1.76h12.25v1.76h-1.94v19.15H489V646.23Zm6.14-54.47.18,0c.09,0,.1,0,4.86,2.49l3.26,1.7c.24,0,.29.15.34.37l.07.3.3.13h-.27l.11.48-.84-.32c-.19,0-.61,0-1.15,0-3.34.09-3.72,0-3.93-.4l-.14-.28.35-.5h1.08l-4.24-1.86L489,595.76c.79,0,1.08.12,1.23.4l.15.28L490,597h-7.11Zm-6.14,12.08v-1.76h12.25v1.76h-1.94V623H489V603.84Zm13.43,20.5v1.82l-.57-.07-.39,0c-1.21,0-1.75.82-2.48,2.08s-1.6,2.77-3.72,2.77H493c-2.08,0-3-1.53-3.69-2.77s-1.35-2.21-2.87-2l-.56.07v-1.82Zm-7.27,9.79.2.06c.06,0,.08,0,5.1,2.64l3,1.54c.23,0,.28.16.33.37l.07.3.3.13h-.27l.13.55-.87-.39c-.19,0-.61,0-1.14,0-3.35.09-3.72,0-3.93-.4l-.14-.28.35-.5h1.08l-4.24-1.85L489,638.14c.79,0,1.08.13,1.23.41l.15.28-.35.52h-7.11Zm-20.75-42.38.19,0c.08,0,.09,0,4.73,2.43,1.58.83,3,1.58,3.38,1.75s.28.15.33.36l.09.33.29.12h-.26l.14.49-.88-.33c-.18,0-.61,0-1.15,0-3.34.1-3.72,0-3.93-.4l-.14-.28.35-.5h1.08l-4.24-1.86-4.18,1.84c.79,0,1.08.11,1.23.39l.15.28-.35.53h-7.11Zm-6.14,12.09v-1.76h12.25v1.76h-1.94V623h-8.37V603.84Zm13.43,20.5v1.82l-.57-.07-.39,0c-1.21,0-1.74.82-2.48,2.08s-1.6,2.77-3.72,2.77h-.33c-2.08,0-3-1.54-3.69-2.77-.8-1.39-1.35-2.29-2.87-2l-.56.07v-1.82Zm-7.27,9.79.2.06c.06,0,.08,0,5.11,2.64l3,1.53c.24,0,.28.15.33.36l.09.33.29.12h-.26l.15.56-.89-.4c-.2,0-.62,0-1.15,0-3.36.09-3.72,0-3.93-.4l-.14-.28.35-.5h1.08l-4.24-1.85-4.18,1.83c.79,0,1.08.12,1.23.4l.15.28-.35.52h-7.11Zm-20.75-42.37.18,0c.09,0,.1,0,4.86,2.49L460,596c.24,0,.29.15.34.37l.07.3.3.13h-.27l.11.48-.84-.32c-.18,0-.61,0-1.15,0-3.36.09-3.72,0-3.93-.4l-.14-.28.35-.5H456l-4.24-1.86-4.18,1.83c.79,0,1.08.12,1.23.4l.15.28-.35.53h-7.11Zm-6.14,12.08v-1.76h12.25v1.76h-1.94V623h-8.37V603.84ZM459,624.34v1.82l-.57-.07-.39,0c-1.21,0-1.75.82-2.48,2.08s-1.6,2.77-3.72,2.77h-.33c-2.09,0-3-1.54-3.69-2.77-.8-1.39-1.36-2.29-2.87-2l-.56.07v-1.82Zm-7.27,9.79.2.06c.06,0,.08,0,5.1,2.64l3,1.54c.23,0,.28.16.33.37l.07.3.3.13h-.27l.13.55-.87-.39c-.18,0-.62,0-1.14,0-3.34.09-3.72,0-3.93-.4l-.14-.28.35-.5H456l-4.24-1.85-4.18,1.82c.79,0,1.08.13,1.23.41l.15.28-.35.52h-7.11ZM431.2,591.8c.08,0,.09,0,4.93,2.54l3.18,1.64c.23,0,.28.15.33.36l.09.32.29.13h-.26l.14.5L439,597c-.17,0-.61,0-1.15,0-3.34.08-3.72,0-3.93-.4l-.14-.28.34-.5h1.09L431,593.93l-4.18,1.83c.8,0,1.09.12,1.24.4l.14.28-.35.53h-7.11L431,591.75Zm172,84v-9.23h1.75V592.94l.72-5.52h-9.23V590H603l-.27.69c-.45,1.1-1.2,2.47-2.26,2.62a1.8,1.8,0,0,1-1.67-.87c-.17-.13-.27-.08-.32,0-.61.28-1.18,2.38-1.16,3.43v50.09h5.53v1.8h1.84v2.64H586.35v-2.92h3.09v-1.89h3.7V595.71c0-1.06-.51-3-1.23-3.33-.08,0-.3-.15-.72.17a1.62,1.62,0,0,1-1.62.52c-1-.24-1.62-1.44-1.93-2.48l-.19-.64h6.22v-2.53h-.39v1.07h-4.22l-1.35,1-.05-.07c-.77.2-4.27.19-21.27.19-4.25,0-8,0-9.33,0v.71l-.56-.56-.44.29v-.44H533c-5.41,0-7.07,0-7.59-.17l0,0-1.36-1h-4.21v-1.07h-.39V590h6.3l-.8,1.89a2,2,0,0,1-1.46,1.23,2,2,0,0,1-1.64-.59.6.6,0,0,0-.65-.09c-.72.37-1.23,2.24-1.22,3.31v49.79h3.69v1.89h3.1v2.92H508.42v-2.64h1.83v-1.8h5.54V595.78c0-1-.57-3.18-1.18-3.46,0,0-.13-.05-.33.1a1.78,1.78,0,0,1-3.15-.28L510,590h6.69v-2.53h-9.24l.72,5.46v73.73H510v9.23h18.53V645.25c0-4.87,3.75-7.09,7.22-7.09h0c3.47,0,7.2,2.22,7.22,7.09v26.21l-1.34,1.46v2.92h9v-2.9l-1.48-1.41V645.25a7.23,7.23,0,1,1,14.45,0v26.23l-1.33,1.44v2.92h9.05v-2.9l-1.49-1.42V645.25a6.89,6.89,0,0,1,7.21-7.1h0c3.46,0,7.19,2.22,7.22,7.1v30.59ZM547,632h-1l-.21-17.31c-.46-7.63-5.05-12.59-9.16-12.59h-.28c-3.76.2-7.54,4.86-6.91,17.29-.07,7.68-.09,10.84-.23,12.14,0,.15,0,.26,0,.3h0c-.09.57-.22.59-.41.59h0c-.2,0-.33,0-.42-.59h-.06s0-.15,0-.34c-.13-1.39-.15-4.84-.18-13.44,0-7.08,0-14.44,0-15.54,0-6.24,4.27-11.31,9.52-11.31s9.52,5.07,9.52,11.31Zm18.9-6.26h-1.46v6.4h-2v-8h2V608.73h-.34L562,615h.13v10.72H551V615h.13l-2.21-6.27h-.35v15.38h2v8h-2v-6.4H547.2V602.51a12.19,12.19,0,0,1,3.41-8.67,8.6,8.6,0,0,1,6-2.62h.08c5.16.2,9.2,5.16,9.2,11.29Zm18,6.13-.06,0s0-.14,0-.29c-.13-1.29-.16-4.44-.23-12.12.64-12.46-3.15-17.12-6.9-17.32-4.19-.25-9,4.78-9.45,12.61L567.1,632h-1L566,602.51c0-6.24,4.27-11.31,9.51-11.31s9.52,5.07,9.52,11.31c0,1.1,0,8.45,0,15.53,0,8.62,0,12.08-.17,13.46a1.78,1.78,0,0,0,0,.33h-.06c-.1.6-.22.62-.45.59S584,632.41,583.92,631.85ZM844.76,364.27h14.9l-7.45-5.42Zm-133.39,228,3.56-1.54-2.77-.43Zm-10,42.23.66.52-.62-.59Zm.31-42,0,.08.63.48Zm2.76,2.83-2.16-.34-.62,1.55Zm-10.84,80.52-.42-86a2.33,2.33,0,0,0-2.06-2.46H607.29l-.75,5.65v73.54h2.72v9.23Zm-66.34-7.3-.57-.07c-1.48-.16-2.06.67-2.87,2s-1.6,2.77-3.72,2.77h-.34c-2.07,0-3-1.53-3.67-2.77s-1.35-2.24-2.88-2l-.56.07v-1.82h14.61Zm-13.43-22.31v-1.76h12.24v1.76h-1.93v19.15h-8.37V646.23ZM648,668.54l-.57-.07c-1.49-.16-2.06.67-2.87,2s-1.6,2.77-3.72,2.77h-.34c-2.08,0-3-1.53-3.68-2.77s-1.35-2.24-2.87-2l-.56.07v-1.82H648Zm-13.43-22.31v-1.76H646.8v1.76h-1.94v19.15h-8.37V646.23Zm14.77-7-.29.13a.34.34,0,0,1-.29,0h0c-.11,0-.72,0-1.24,0l-1.87,0c-1.65,0-1.88-.12-2-.46l-.14-.31.41-.44h1l-4.24-1.85-4.24,1.85h1.38l-.09,1.18h-7.27l9.91-5.12c.29-.13.33-.13,6.25,2.93l2.33,1.19a.42.42,0,0,1,.26.15l.15.16,0,.35.37.16Zm-14.77-35.35v-1.76H646.8v1.76h-1.94V623h-8.37V603.84ZM648,624.34v1.82l-.57-.07-.39,0c-1.21,0-1.75.82-2.48,2.08s-1.6,2.77-3.72,2.77h-.33c-2.08,0-3-1.54-3.69-2.77-.81-1.39-1.39-2.29-2.86-2l-.57.07v-1.82Zm20.73,44.2-.57-.07c-1.51-.16-2.06.67-2.87,2s-1.6,2.77-3.72,2.77h-.34c-2.08,0-3-1.53-3.68-2.77s-1.33-2.24-2.87-2l-.56.07v-1.82h14.61Zm-13.43-22.31v-1.76h12.24v1.76h-1.93v19.15h-8.37V646.23Zm14.83-7.06-.34.15-.2,0h-5.3l.08-1.18h1.29l-4.24-1.85-4.24,1.85h1.38l-.09,1.18h-7.27l9.91-5.12c.3-.14.38-.12,6.26,2.93l2.32,1.19h2.38l-1.78.75.16.07Zm-14.83-35.33v-1.76h12.24v1.76h-1.93V623h-8.37V603.84Zm13.43,20.5v1.82l-.57-.07-.39,0c-1.21,0-1.74.82-2.48,2.08s-1.6,2.77-3.72,2.77h-.33c-2.09,0-3-1.54-3.69-2.77-.8-1.39-1.35-2.29-2.87-2l-.56.07v-1.82Zm20.73,44.2-.57-.07c-1.49-.16-2.06.67-2.87,2s-1.6,2.77-3.72,2.77H682c-2.08,0-3-1.53-3.69-2.77s-1.38-2.21-2.87-2l-.56.07v-1.82h14.61ZM676,646.23v-1.76h12.25v1.76h-1.94v19.15H678V646.23Zm15.15-7.06h-.33l-.34.15a.84.84,0,0,1-.19,0H685l.08-1.18h1.29l-4.24-1.85-4.24,1.85h1.38l-.09,1.18H671.9l9.92-5.12c.29-.11.31-.14,6.27,2.93l2.31,1.19h2.38l-1.78.75ZM676,603.84v-1.76h12.25v1.76h-1.94V623H678V603.84Zm13.43,20.5v1.82l-.57-.07-.39,0c-1.21,0-1.75.82-2.48,2.08s-1.6,2.77-3.72,2.77H682c-2.08,0-3-1.54-3.68-2.77-.82-1.39-1.36-2.29-2.88-2l-.56.07v-1.82ZM688,594.72c1,.54,2.14,1.11,2.44,1.25h2.5l-1.89.75.15.07h-.31l-.37.14c-.06,0-.12.07-.18,0H685l.08-1.18h1.29l-4.24-1.86-4.24,1.86h1.38l-.09,1.18h-7.27l9.92-5.13C682.13,591.75,682.17,591.72,688,594.72Zm-20.71,0c1,.54,2.12,1.1,2.42,1.24h2.5l-1.89.75.15.07h-.31l-.36.14c-.07,0-.12.07-.19,0h-5.3l.08-1.18h1.29l-4.24-1.86-4.23,1.86h1.37l-.09,1.18h-7.27l9.92-5.13C661.4,591.76,661.47,591.74,667.25,594.73Zm-26.88-2.89c.3-.1.3-.13,6.16,2.9,1,.53,2.11,1.09,2.41,1.23h2.38l-1.78.75.16.07h-.33l-.34.14a.58.58,0,0,1-.19,0h-5.3l.08-1.18h1.29l-4.24-1.86-4.24,1.86h1.38l-.09,1.18h-7.27Zm-20.73,0c.31-.09.34-.12,6.13,2.88,1.06.54,2.15,1.11,2.45,1.25a.38.38,0,0,1,.25.15l.15.16,0,.35.37.16-.38,0-.29.11a.32.32,0,0,1-.29,0h0c-.12,0-.72,0-1.24,0l-1.87,0c-1.65,0-1.88-.13-2-.46l-.14-.31.41-.44h1l-4.24-1.86-4.23,1.86h1.38L617,597h-7.26Zm-5.82,12v-1.76h12.24v1.76h-1.93V623h-8.37V603.84Zm13.43,20.5v1.82l-.57-.07-.39,0c-1.21,0-1.74.82-2.48,2.08s-1.6,2.77-3.72,2.77h-.33c-2.08,0-3-1.53-3.68-2.77s-1.37-2.21-2.88-2l-.56.07v-1.82Zm-7.63,9.89c.31-.13.34-.13,6.27,2.93l2.32,1.19h2.38l-1.78.75.16.07h-.32l-.34.15-.2,0h-5.3l.08-1.18h1.29l-4.24-1.85-4.24,1.85h1.39l-.11,1.18h-7.26ZM737.33,467l-2.79,6.68a.86.86,0,0,0,.05.81.41.41,0,0,0,.34.22,5.29,5.29,0,0,1,3.12.92,5.26,5.26,0,0,0,2.89.86,4.77,4.77,0,0,0,3-.85,6.37,6.37,0,0,1,2.36-.92c1.05.06,1.61,0,1.8-.26s.08-.55,0-.82l-2.87-6.83c0-.21,0-.44,0-.7,0-1.08.07-2.71-.55-3.34a.92.92,0,0,0-.72-.27h0a16,16,0,0,1-2.39,0c-1.52-.09-3.09-.16-3.77.48a1.5,1.5,0,0,0-.39,1.17Zm1-3.37h5.91v7.9h-5.91Zm38.23-42.94c0,.5,0,1.41,0,3.07,0,1.06,0,2.31,0,3.47l0-.08v8.1l4.11-5,0-10.23.37-.78-3.75-.58ZM787.21,403l1.1.86.45-1-1.58-1.5L781.84,412l1.69,2.06,1.38-2.94-1.73.84ZM525.14,538.8H513.4l.22.73,11.32,0ZM885.36,387.72a1.85,1.85,0,0,0,.11,1.79,2.21,2.21,0,0,0,2.09.55l.07,0,.07,0a10.7,10.7,0,0,1,4,1.56,8.71,8.71,0,0,0,5.25,1.53,9,9,0,0,0,5.37-1.53,10.87,10.87,0,0,1,4-1.56h.3c1.21.06,2.59.09,3.07-.53.29-.35.31-1,.06-1.87l-5-11.81c0-.39,0-.84,0-1.34.06-2,.13-4.76-1-6a2.15,2.15,0,0,0-1.6-.62h-9.22a2.08,2.08,0,0,0-1.6.62c-1.15,1.18-1.08,3.93-1,5.94,0,.5,0,1,0,1.36l0,.19Zm7.34-17.05h9.58v13.06H892.7ZM836.29,591.54l-6.63,1.61v6.38l6.63-1.28Zm27.18-227.27L851.7,352.39l-11.76,11.88h2.39l9.88-8.9,9.88,8.9ZM810,692.15l5.61.12,139.7,17.14V556.24l-11.07,2.57V522.32h1.5l11.49-13.68-4.83-6.24h-8.16V423.46L958,414.4l-1-.09c-1.23-.09-70.14.17-111.3.33l-34.29.13-41.81,40.9L811,417h.2l131.05-.17,14.06-2.38L943,423.26h-.15l-131.53.12-47,42V469l-.58-.08-3.54-.52c-2.8-.4-6-.86-7.78-1.18l-.11,0,6.22,7.92,5.79,3.35v5.77l-.08.09h.08v48l47.22-27.58h25.83l-.07-43.21-2.23-2.68v-2.46l-1.56-4.2h33.1L865,457H839.58v47.81H893.8l-.07-43.21-2.23-2.68v-2.46l-1.56-4.2H923L921.41,457H896v47.81H952.4l3.29,3.79-.76.22c-.15,0-.16.05-45.84,0-40.29,0-95.28,0-98.06.1-13.24,8.09-34.39,21-55.88,34.08l56-33.7,144.72.05-9.86,12H811.29c-16.63,9-45.67,24.92-71.29,39-16.82,9.24-32.59,17.89-43.4,23.79a2.69,2.69,0,0,0-1.2,2.45l.46,89.49,3.11.36,1,.12V641.78l5.52-.7v36.09l3.27.39v-36.9l.43,0,8-1v39l3.26.39V639.17l7.7-1v41.67l3.26.38V637.77l7.86-1v44.41l3.27.38v-45.2l.44-.06,8.27-1v47.34l3.27.39V634.83l.44-.05,9.31-1.19v50.54l6.32.75v-52.1l.44,0,8.84-1.13V686l3.21.38V631.19l.44-.05,8.4-1.07v57.34l3.22.38V629.65l.44,0,9.6-1.22V689l6,.71,4.52,0v1.56l-.48,0c-.46,0-.94,0-1.46,0a111.5,111.5,0,0,1-12.87-1.2c-2-.25-3.82-.5-5.28-.64h0l-100.36-12H417.78c-3.26.38-18.89,2.25-37,4.43-33.45,4-75.08,9-78.8,9.37h-4.62v-1.59H302l5.92-.68V628.38l10,1.27v58.14l3.21-.38V630.07l8.85,1.12v55.17l3.21-.38V631.6l9.28,1.18v52.1l6.32-.75V633.59l9.75,1.24V683l3.26-.39V635.25l8.72,1.11v45.2l3.26-.38V636.77l7.86,1v42.47l3.27-.38V638.19l7.69,1V679l3.27-.39v-39l8.48,1.08v36.9l3.27-.39V641.08l5.51.7v34.73l1-.12,3.12-.36.45-89.48a2.68,2.68,0,0,0-1.2-2.46c-11-6-27.1-14.84-44.21-24.24-25.34-13.91-54.05-29.68-70.47-38.54H167.09l-9.85-12L302,509.28l.12.07,58.36,35.11c-22.2-13.56-44.8-27.34-58.6-35.62l-144.6,0,3.49-4h56.42V457H191.71l-1.61-4.74h33.1l-1.56,4.2v2.46l-2.24,2.68-.06,43.21h54.22V457H248.12l-1.61-4.74H279.6l-1.55,4.2v2.46l-2.24,2.68-.06,43.21h25.82l.11.08,47.12,27.5v-48h.08l-.08-.09V478.5l.25-.15,5.54-3.2,6.21-7.92-5.1.8-6.9,1v-3.69l-47-42-131.67-.12-.13-.08-13.11-8.78L171,416.79l131.16.16.15.14,41.25,38.58-41.8-40.9-131.51-.48-15.62,0,31-23.46L204.36,367l-1.11.81-.63-.78,13-11.68,9.87,8.9h1.94l-11.64-11.75.25-.34,43.82-61,36.05,107.37,12.81,16.19,52.54,51.93,3.52-4.49-.49-.62,7.56-6.8,5.72,5.16h.39l-7.82-6.87.19-.36L388.58,419l1.71,4,.47-.24,15.59,25.61,25.58,53.06-.67.39.07.1,11.26,2.26,71.19.13c3.3,0,4.11,3.49,4.59,5.57a6.17,6.17,0,0,0,.36,1.26,3.05,3.05,0,0,0,3.79,0,4.24,4.24,0,0,1,2.78-1.23h8.84l-2.32,9.56c-.67,2.88-3,4.38-6.28,4l-.34,0-1.07-3.78c-.44-2-2.26-2-4.82-1.91-.46,0-.87,0-1.32,0l.1,8.27h-.51l-87.6.2,3-10.59-22.09-25.22H351.22l-.93-.7,0,26.26,12.43,8.66h50.68l.15.14,9.14,8.7H547.08a4.35,4.35,0,0,1-.4-1.91v-.52l3,.12h13.81l3-.12v.52a4.5,4.5,0,0,1-.39,1.91H690.47l9.3-8.84h50.68L762.88,516l0-26.26-.92.7h-59.7l-22.08,25.22,3,10.59h-.66L595,526l.1-8.29h-4.08c-1.57,0-2.21,2.07-2.78,4.37-.09.36-.18.71-.27,1l-.09.31-.32,0c-3.25.43-5.64-1.14-6.3-4L579,509.88h8.85a6.3,6.3,0,0,1,2.68,1.09c1.35.81,2.32,1.41,3.91.1a7.35,7.35,0,0,0,.34-1.22c.48-2.08,1.28-5.57,4.59-5.57l71.29-.15,11.15-2.24.07-.1-.67-.39,25.56-53,15.62-25.65.46.24,1.71-4L743,453.06l-.3.26-7.51,6.61h.38l5.73-5.16,7.56,6.8-.5.62,3.53,4.49.28-.28,52.29-51.7,12.78-16.14,36-107.37.58.8,43.5,60.53-.3.3-11.34,11.45h1.93l9.88-8.9.34.3,12.63,11.38-.63.78-1.11-.81,18.7,23.83,30.83,23.31,1.48-1-32-23.85-16.74-21.42.57-1.7-13.86-15.4-46-64.27-27,34.17-27.95,59.77h-2.5l-6,15.51-3.77-.06L780,407.81l-6.22.06-6.87,17.5h5.8v6.31L765.1,448v2.25l-13.53,13.42-2-3.62-6.11-8.74L724,415.48l-19.3,31.42L679,500.09l-9.3,1.92-71.54.12a16.88,16.88,0,0,0-6.31-1.19c-2,0-5.34.94-6.1,6.84l-5.21,0-.36-1.62,4.08.05,3.82-5.26-15.66,0c-1.87-1.38-8-5.51-14.47-6.27l0-.16-4,0v.17c-6.39.86-12.28,4.87-14.12,6.22l-15.64,0,3.8,5.26,4.09-.05-.37,1.62-5.21,0c-.77-5.9-4.08-6.84-6.1-6.84a16.93,16.93,0,0,0-6.31,1.19l-71.14-.08-9.69-2-25.81-53.35-19.2-31.25L369,451.13l-6.34,9.11-1.9,3.45-13.53-13.42V448l-7.59-16.34v-6.31h5.81l-6.87-17.5-6.22-.06-4.57-11.88L324,396l-6-15.51h-2.5l-28.2-60.16L260.5,286.54l-45.85,64.1-14,15.57.57,1.7-16.36,21L152.5,413.18,168,423.46V502.4h-8.15L155,508.64l11.49,13.68H168v36.49l-11.06-2.57V709.41l139.5-17.13,6-.15,115.9-13.87,138,.67,137.36-.69ZM850,498.75h-7.85V479.38H850Zm0-19.86h-7.85V459.52H850Zm8.32,19.86h-7.85V479.38h7.85Zm0-19.86h-7.85V459.52h7.85Zm48.09,19.86h-7.85V479.38h7.85Zm0-19.86h-7.85V459.52h7.85Zm8.32,19.86h-7.85V479.38h7.85Zm0-19.86h-7.85V459.52h7.85Zm-138.77,7.25.81-.65-.05,29.22-4.07,2.7,0,6.34-1.25.78,0-.89c-.06-5.17,0-9.57.11-13.84.14-7,.27-13.63-.34-22.22-.81-2.62.81-3.78,3.07-5.38a28.25,28.25,0,0,0,3.46-2.77l.79-.75.06,1.09c.17,3.3-1.46,4.42-3.35,5.73a19.76,19.76,0,0,0-2.3,1.77v1.32Zm-5.31-1.3.22-1.31c1.65-10.07,2.16-10.67,2.66-10.67h.1c.59.05.62.72.61,1.81a10.67,10.67,0,0,0,.28,3,13.83,13.83,0,0,0,.59-4.66c0-1.13.06-2,.71-2.06.43-.08,1.07-.14,2.71,7.11l.07.3Zm18.63-9.21v30.76l-4.61,3.06v6.65l-1.29.85V516l0-34.38-.55-1.6V480a20.63,20.63,0,0,0-.32-4.14l0-.28,8.79-7.16,0,1c.16,3.51-1.68,4.79-3.82,6.27a23.54,23.54,0,0,0-2.79,2.16v1.47Zm1.87-7.62-7.85,6.45-1,.86.24-1.33c2-11.52,2.62-11.46,3.11-11.42s.65.78.65,1.87a8.43,8.43,0,0,0,.39,3.2c.3-.45.82-2,.82-5.21,0-1.31.13-2.09.75-2.17.4,0,1.16-.18,3.11,7.25l.08.3Zm11.53-3v32.47l-5.08,3.37v7l-.23.15-.29.18-.76.47,0-.87,0-36.33-.61-1.66v-.11a21.83,21.83,0,0,0-.36-4.35l0-.29.22-.18,8.6-7,.78-.63,0,1c.14,3.71-1.74,5-4.12,6.68a27.38,27.38,0,0,0-3.17,2.47v1.61Zm2.09-8.21-9.72,8,.24-1.35c2.11-11.48,2.79-12.15,3.28-12.15h.1c.62.05.66.8.66,1.93a7.83,7.83,0,0,0,.47,3.44c.33-.38,1-2,1-5.64,0-1.38.13-2.19.78-2.28.41,0,1.27-.13,3.38,7.53l.09.31Zm11,46.41h-4.37l-2.94,1.82-.67-1.43,3.26-2h4.72Zm0-5h-4.37l-2.93,1.87-.69-1.42,3.27-2h4.72Zm0-5h-4.36l-2.92,1.92-.71-1.42,3.19-2.1h4.8Zm0-5h-4.36l-2.91,2-.72-1.41,3.19-2.15h4.8Zm0-5h-4.35L808.67,485l-.74-1.39,3-2.11h4.81Zm0-5h-4.35l-2.9,2.07-.75-1.38,3.19-2.28h4.81Zm0-5H811.4l-2.71,2-.77-1.38,3-2.21h4.82Zm0-5h-4.33l-2.71,2-.78-1.38,3-2.26h4.82Zm0-5h-4.35l-2.72,1.9-.74-1.39,3-2.1h4.81Zm0-5H811.4l-2.9,2.15-.76-1.38,3.18-2.36h4.82Zm0-5H811.4L808.5,455l-.76-1.37,3.18-2.33h4.82Zm0-5h-4.3l-2.66,2.39-.88-1.3,3-2.68h4.86Zm0-5h-4.3l-2.65,2.42-.89-1.28,3-2.74h4.86Zm0-5h-4.3l-2.65,2.42-.89-1.28,3-2.74h4.86Zm0-5h-4.3l-2.65,2.43-.89-1.29,3-2.74h4.86Zm0-5h-4.3l-2.65,2.43-.89-1.29,3-2.73h4.86ZM833.33,451l.49-.77c1.91-3,8.36-12.71,11-11.9,1.12.33,1.12,1.94,1.12,2.47,0,3.68,2,5.61,4,5.61s4-1.8,4-5.74c0-.5,0-2,1.09-2.33a1,1,0,0,1,.35-.06c2.9,0,9.23,9.06,11.16,11.94l.53.78Zm56.41,0,.49-.77c1.91-3,8.33-12.71,11-11.9,1.12.33,1.12,1.94,1.12,2.47,0,3.68,2,5.61,4,5.61s4-1.8,4-5.74c0-.5,0-2,1.09-2.33a1,1,0,0,1,.35-.06c2.9,0,9.23,9.06,11.16,11.94l.53.78Zm-74,230.16h-4.58l-3.18-.23.09-1.59,3.14.23h4.53ZM808,656v-1.59h7.72V656Zm7.72,3.45V661H808v-1.59Zm-.52-8.48a56.4,56.4,0,0,0-6.61.2l-.53.07-.1-1.59.46-.05a63.66,63.66,0,0,1,6.8-.23h.5v1.6Zm0-5c-1.48,0-5.08,0-6.64.15l-.53.06-.07-1.59.47,0c1.62-.17,5.25-.17,6.78-.17h.5v1.59Zm0-5a56.42,56.42,0,0,0-6.61.21l-.53.07-.1-1.59.46-.06c1.65-.22,5.37-.22,6.8-.22h.5v1.6Zm0-5a45.18,45.18,0,0,0-6.59.26l-.54.09-.12-1.59.45-.08a52.68,52.68,0,0,1,6.82-.27h.5v1.59Zm.52,40.31h-4.58L808,676l.06-1.59,3.14.16h4.54Zm0-5h-4.58L808,671l0-1.6.51,0c1.45.08,4.8.1,6.68.07h.51Zm25.94,16.17v6.36l-14-1.59,0-.44c-.45-14.15-.43-25.05-.41-37.67,0-4.54,0-9.28,0-14.42,0-11.25,3.2-20.54,7.3-21.14a3.31,3.31,0,0,1,2.6.87c2.9,2.51,4.85,10.23,4.85,19.22,0,.31,0,4.25,0,9.25.06,31.1,0,38-.33,39.56Zm21.8,8.29,0,.53-17.86-2,0-.45a59.12,59.12,0,0,0-.49-9.88V638.14c.09-14.61,5.17-22.52,9.91-22.54h0c3.92,0,8.58,5.54,8.82,21.19C864,644.55,863.84,689.15,863.48,695.55Zm25.78,2.93,0,.53-19.16-2.17v-.46a63.61,63.61,0,0,0-.53-10.71V636.28c.09-15.8,5.54-24.35,10.63-24.37h0c4.21,0,9.21,6,9.47,22.91C889.78,643.23,889.65,691.53,889.26,698.48Zm28.65,3.25,0,.54-.52-.07L898.16,700l-.46-.06v-.45a71.3,71.3,0,0,0-.55-11.65V634.19c.09-17.12,5.83-26.38,11.19-26.4h0c4.44,0,9.71,6.5,10,24.86C918.46,641.79,918.32,694.24,917.91,701.73Zm33.94,3.86,0,.52-24.56-2.79v-.46a68.74,68.74,0,0,0-.68-12.64V632c0-15,5.76-28,12.83-29.05a6.56,6.56,0,0,1,5.39,1.78c4.61,4,7.59,13.94,7.59,25.39C952.52,640.1,952.36,697.47,951.85,705.59Zm-132.73-104,8.53-1.65v-9.49l8.88-2.22V555.11h2v4.41h.5a12.06,12.06,0,0,1,2.12-5.69h-11.6l20.32-14.41.29.2,20,14.21h-11.6a12,12,0,0,1,2.12,5.69h2V562h-4.25v-1.25c-.11-6.14-4.53-8.95-8.59-8.95h0c-4.06,0-8.49,2.81-8.6,9V562h-2.74v25.69l.78-.19v-.11l.5,0,2.09-.52v-3.44h7.85v1.49l.47-.12v-1.37h5.53l2-.49h-7.5V563.58h7.85v19.28l35.7-8.92V555.11h2v4.41h.49a12,12,0,0,1,2.13-5.69h-11.6l20.32-14.41.29.2,20,14.21H915.86a12,12,0,0,1,2.13,5.69h2V562h-4.25v-1.25c-.08-5.08-3.13-7.88-6.48-8.69a7.55,7.55,0,0,1,3.05,1.91,10.32,10.32,0,0,1,2.85,7.36v.49h-16v-.49A10.34,10.34,0,0,1,902,554a7.65,7.65,0,0,1,3.06-1.91c-3.35.82-6.39,3.61-6.47,8.7V562h-2.74v11.41l3.37-.85v-9H907v7.06l.46-.12v-6.94h7.86v5L954,558.91v2l-.38.1L939,564.63V565l15.28-3.73v1.49l-.38.1L939,566.46v11.9l15.28-3v2.88l-.4.08-133.19,25.8v87h-1c-.5,0-.5,0-.5-1.8V673c0-22.9,0-64.7,0-68.79h0Zm28-39.73c-2.33,0-4.52,0-4.73,0l0-.49-.52,0c.06-6.48,4.19-9.45,8-9.47h0c3.77,0,7.86,2.9,8,9.27l.08.14-.14.26c-.15.26-.18.33-4.4.33Zm2.61,1.73V583h-7.85V563.58ZM815.25,666.05c-.32,0-2.31,0-4.15,0-1,0-2,0-2.61,0l-.48,0,0-1.58,3,.08,4.65-.07V666Zm-4.09-117.49h4.58v1.59h-4.41l-3,1.5-.57-1.48Zm-2.79-1.89-.58-1.47,3.37-1.68h4.58v1.59h-4.4Zm7.37,6.93v1.59h-4.42l-3,1.38-.52-1.5,3.35-1.47Zm-4.58,5h4.58v1.59h-4.4l-3,1.52-.57-1.49Zm0,5h4.58v1.59h-4.42l-3,1.33-.51-1.5Zm0,5h4.58v1.59H811.3l-3,1.19-.46-1.52Zm4.58,5v1.59h-4.46l-3,1-.39-1.54,3.31-1.06Zm-4.58,5h4.58v1.59H811.3l-3,1.17-.45-1.52Zm0,5h4.58v1.59h-4.45l-3,1.12-.43-1.54Zm0,5h4.58v1.59h-4.46l-3,1.06-.4-1.54Zm4.58,5v1.59h-4.51l-3,.87-.34-1.55,3.23-.9Zm-4.58,5h4.58v1.59h-4.47l-3,1-.36-1.55Zm4.58,5v1.59h-4.58l-3,.69-.26-1.53.42-.13a20.29,20.29,0,0,1,6.43-.63Zm-4.64,5h4.64v1.6h-4.51l-3,.83-.32-1.55Zm-.11,5.05,4.75,0v1.59h-4.52l-3,.74-.28-1.57Zm.17-80.64h4.58V535h-4.41l-3,1.46-.56-1.48Zm-3.37-3.4,3.37-1.64h4.58V530h-4.4l-3,1.54Zm3.37-6.68h4.58V525h-4.39l-3,1.6-.6-1.47Zm0,15.12h4.58v1.59h-4.39l-3,1.61-.6-1.46Zm-13.51,1.67h4.89l5.8,7.05h-5.49l-4.1-3.92-5.28,10.48-.91-.41ZM795.11,598l10-2.59v2.27l-.45,0c-1,.1-1.46,2.14-1.88,3.94-.53,2.25-1,4.38-2.63,4.51a1.1,1.1,0,0,1-.26,0,1.65,1.65,0,0,1-.89-.29c-.85-.58-1.49-2-1.82-4-.25-1.35-.58-1.79-.82-1.92-.08-.05-.24-.1-.55,0l-.69.27Zm-.24-44.6,3.9-8.67,5.48,4.27-4.51-.71-1.35,3.4ZM804.73,593l-9.62,2.64v-39.8l10-4.35V592.9Zm-20.41-44.62h4.1l4.89,6h-4.72l-3.28-3.14-4.26,8.45-.92-.41ZM791.85,600a1.13,1.13,0,0,1-.19.9.87.87,0,0,1-.64.26c-.13,0-.72.79-1,2.66-.31,3-1.44,5.09-2.79,5.12h0c-.83,0-1.91-.72-2.41-4.08-.25-1.4-.55-1.75-.71-1.84s-.15-.09-.4,0l-.69.27v-2.19l.38-.09,5.9-1.54,2.64-.68-.08.72A2.41,2.41,0,0,0,791.85,600Zm-5.7-44.79L785.06,558l-3.14,1.52,3.34-7.42,4.84,3.77Zm5.69,2v39.28L783,599V561.11Zm-19.61-2.83H776l4.52,5.5h-4.4l-3-2.83-3.85,7.63-.91-.41Zm-1.34,49.87.38-.09,5.9-1.53,2.56-.67v2.13l-.42.06c-.58.09-1,.56-1.38,2.61-.31,2.89-1.44,4.86-2.8,4.89h0c-.68,0-1.87-.51-2.4-3.86-.24-1.27-.54-1.61-.69-1.7a.58.58,0,0,0-.42,0l-.69.28ZM770,564.69l3.11-6.91,4.6,3.57-3.74-.58-1,2.47Zm.91,37.58V566.38l8.84-3.84v37.31Zm-15-40.78h4l4.8,5.84H760.1l-3.2-3.07-4.17,8.27-.91-.41Zm-1.82,47.17.38-.1,9.08-2.35.63-.16v2l-.43.07c-.61.09-1.24.46-1.66,2.52-.35,2.65-1.7,4.63-3.21,4.68h-.06c-.75,0-2-.48-2.64-3.47-.17-.78-.43-1.3-.74-1.46-.06,0-.26-.15-.67,0l-.68.26Zm-.54-36.25,3.28-7.3,4.79,3.73-3.91-.61-1.06,2.68Zm10.26,31.79-9.72,2.66V573.69l10.09-4.39v34.8Zm-19.9-36.27h3.55l4.26,5.19h-4.18l-2.72-2.61-3.56,7-.91-.41Zm6.92,42.6a1.06,1.06,0,0,1-.19.86.76.76,0,0,1-.61.25,3.61,3.61,0,0,0-.83,2.15c-.29,2.55-1.33,4.3-2.59,4.34h0c-.63,0-1.72-.46-2.22-3.39-.21-1.11-.48-1.37-.59-1.43a.42.42,0,0,0-.35,0l-.68.27v-2l8.2-2.13-.11.74A1.66,1.66,0,0,0,750.84,610.53Zm-5.28-36.63-.9,2.29-2.87,1.38,2.94-6.55,4.41,3.44Zm5.28,1.22v32.64l-8.1,2.22V578.64Zm-18.15-1.45h3.56l4.25,5.18h-4.18l-2.72-2.6-3.55,7-.92-.41Zm-1.33,40.88.38-.09,4.86-1.26,2.87-.74v2l-.46,0c-.66,0-1.08,1.61-1.4,2.87-.43,1.63-.87,3.32-2.12,3.39a1.47,1.47,0,0,1-.36,0,1.25,1.25,0,0,1-.61-.15c-.73-.41-1-1.44-1.33-2.53-.22-.76-.49-1.7-.83-1.87a.4.4,0,0,0-.31,0l-.69.28Zm-.8-31.24,3-6.55,4.41,3.44-3.58-.57-.91,2.29Zm.8,29.78v-29.5l8.11-3.53v30.81Zm-30.49-22.87h2.82l3.4,4.15h-3.15l1,.74.46-.2V620.2l-5.52,1.52V597.51l-.75.36,1.08-2.4-1.1,2.18-.91-.41Zm4.49,31.09v1.8l-.46,0c-.29,0-.63,1.68-.75,2.22-.28,1.4-.56,2.71-1.48,2.73a.75.75,0,0,1-.24,0,.91.91,0,0,1-.41-.1c-.57-.31-.77-1.18-1-2.2a4.66,4.66,0,0,0-.52-1.6l-.69.3,0-1.8Zm-1.69,15,1.4,1.09-3.07-.48-.67,1.67-2.51,1.22,1.09-2.41-1.11,2.19-.91-.41,2.71-7h2.81l3.42,4.14Zm9.85-1.47,0,0,1.54,1.2-3.34-.53-.79,2-2.69,1.3,2.68-6,2.14,1.66-2-1.91L708,638.73l-.92-.41,3.14-8.14h3.2l3.83,4.67Zm3.21-15.54a.93.93,0,0,1-.17.76.8.8,0,0,1-.62.26c-.35.12-.75,1.43-1.05,2.39-.46,1.51-.94,3.06-2.14,3.12a2.08,2.08,0,0,1-.41,0c-1.12,0-1.56-1.35-1.9-2.36s-.62-1.66-.92-1.55a.58.58,0,0,1-.66-.05.75.75,0,0,1-.24-.74,1.31,1.31,0,0,0,0-.28l-.06-.44.43-.11,4.86-1.26,3-.77-.11.75A.94.94,0,0,0,716.73,619.31Zm-2.8-29.69,1.29,1,1.51-.65v27.12l-8.11,2.22V593.49l.14-.06,2.61-5.8,2.1,1.63-2-1.89-3.08,6.12-.92-.41,3.15-8.13h3.19l3.84,4.67Zm11.2,43.52,1.63,1.27-3.43-.54L722.5,636l-2.75,1.34,2.78-6.19,2.58,2-2.47-2.36-3.26,6.46-.91-.41,3.3-8.54h3.32l4,4.87ZM720,616.2V588.54l6.47-2.82-3.55-.57-.91,2.29-2.87,1.39,3-6.55,4.4,3.43,1.61-.7v29Zm8.1-.79v1.88l-.43.06c-.44.07-.89.36-1.2,2-.29,2.25-1.36,3.87-2.61,3.91h0c-.63,0-1.7-.41-2.19-3-.19-.89-.44-1.12-.55-1.17s-.15-.08-.4,0l-.68.27v-1.89Zm-3.2-31-2.72-2.6-3.55,7.05-.91-.41,3.55-9.22h3.56l4.25,5.18Zm9.44,47.5-.91,2.28-2.87,1.39,3-6.55,4.4,3.44Zm2-.79-2.72-2.6-3.55,7-.92-.41,3.56-9.22h3.56l4.25,5.18Zm9.5-1.16-1,2.43-3,1.44L745,627l4.56,3.54Zm2.13-.83-2.9-2.77-3.78,7.49-.91-.41,3.76-9.74h3.72l4.46,5.43ZM758,628l-1,2.57-3,1.49,3.2-7.13,4.69,3.66Zm2.28-.88-3.09-3-4,8-.91-.41,4-10.28h3.91l4.67,5.68Zm12.55-1.6-1.18,3-3.28,1.59,3.54-7.87,5.07,3.95Zm2.68-1L772,621.12l-4.63,9.17-.91-.41,4.51-11.69h4.38l5.21,6.35Zm11-1.72-1.16,2.94-3.26,1.58,3.51-7.81,5,3.93Zm13-1.55-1.35,3.39-3.52,1.72,3.9-8.68L804,622Zm3.11-1.12-4.1-3.92-5.28,10.49-.91-.42,1.72-4.46h-4.92l-3.53-3.38-4.57,9.07-.92-.41,4.47-11.57h4.34l5.14,6.26,3.37-8.71h4.88L808,620l0-.3.42-.11a31.8,31.8,0,0,1,6.89-.45l.49,0v1.57H811.2l-3.07.5-.13-1Zm8.42,4h4.68v1.59H811.2l-3.08.46-.18-1.59Zm0,5h4.66v1.59h-4.55l-3.09.38-.14-1.59Zm4.17,57h-1.16a42.94,42.94,0,0,1-5.68-.3l-.45-.09.14-1.57.54.09a49.88,49.88,0,0,0,6.58.27h.52v1.59ZM206.75,459.52h7.86v19.37h-7.86Zm0,19.86h7.86v19.37h-7.86Zm-8.31-19.86h7.85v19.37h-7.85Zm0,19.86h7.85v19.37h-7.85Zm64.72-19.86H271v19.37h-7.86Zm0,19.86H271v19.37h-7.86Zm-8.32-19.86h7.86v19.37h-7.86Zm0,19.86h7.86v19.37h-7.86Zm63-14a21.29,21.29,0,0,0-.37,4.36v.1l-.61,1.66,0,37.22-.76-.46-.34-.21-.22-.14v-7l-5.09-3.37V465.05l5.09,4v-1.61a28.31,28.31,0,0,0-3.16-2.46c-2.39-1.67-4.29-3-4.13-6.69l0-1,.77.63,8.61,7,.22.18Zm12.47,12.85a219,219,0,0,0-.58,24c.06,4.51.12,9.18,0,13.74v.42l-.65.11-.2-.17c-.3-.25-.46-1.6-.51-7l-4.53-3V475.63l4.66,3.68c0-.73,0-1.24,0-1.49a25,25,0,0,0-2.8-2.17c-2.15-1.49-4-2.78-3.83-6.29l0-1,8.79,7.16Zm12,7a13.72,13.72,0,0,0-.19,2.2,10.74,10.74,0,0,1-.51,3.41c-.08,5.17,0,9.54.11,13.77.12,6.08.24,11.82-.16,18.84l-1,0,0-6.07-4.07-2.7v-.27l-.06-29,.81.65,3.13,2.45v-1.32a19,19,0,0,0-2.3-1.77c-1.89-1.31-3.52-2.43-3.34-5.73l.05-1,7.64,6.2ZM334.64,478c1.5-6.62,2.14-7.12,2.59-7.12h.12c.65.07.7.93.7,2.06a13.6,13.6,0,0,0,.6,4.65,10.74,10.74,0,0,0,.27-3c0-.94,0-1.75.62-1.81s1-.05,2.76,10.67l.22,1.31-7.95-6.51Zm-12.8-10.52c2-7.43,2.73-7.27,3.12-7.25.62.08.74.86.74,2.17,0,3.17.53,4.76.82,5.21a8.11,8.11,0,0,0,.4-3.2c0-1.09.05-1.82.65-1.87s1.07-.1,3.11,11.42l.23,1.33-1.05-.86L322,468l-.25-.2Zm-13.61-11.19c2.12-7.66,3-7.57,3.38-7.53.65.09.78.9.78,2.28,0,3.59.65,5.26,1,5.64a7.58,7.58,0,0,0,.48-3.44c0-1.13,0-1.88.65-1.93s1.14-.1,3.38,12.14l.25,1.35-10-8.2Zm-10.84-30.24h4.86l3,2.73-.89,1.29-2.66-2.43h-4.29Zm0,5h4.86l3,2.74-.89,1.29-2.66-2.43h-4.29Zm0,5h4.86l3,2.74-.89,1.28-2.66-2.42h-4.29Zm0,5h4.86l3,2.74-.89,1.28-2.66-2.42h-4.29Zm0,5.05h4.86l3,2.68-.89,1.3-2.65-2.39h-4.3Zm0,5h4.81l3.18,2.33-.75,1.38-2.9-2.12h-4.34Zm0,5h4.82l3.18,2.36-.76,1.38-2.91-2.15h-4.33Zm0,5h4.8l3,2.1-.73,1.39-2.72-1.9h-4.35Zm0,5h4.82l3,2.26-.77,1.38-2.71-2h-4.33Zm0,5h4.82l3,2.21-.77,1.38-2.71-2h-4.33Zm0,5h4.81l.13.1,3.06,2.18-.76,1.38-2.9-2.07h-4.34Zm0,5h4.81l3,2.11-.73,1.39-2.73-1.91h-4.34Zm0,5h4.8l3.18,2.15-.71,1.41-2.92-2h-4.35Zm0,5h4.79l3.19,2.1-.7,1.42-2.92-1.92h-4.36Zm0,5h4.79l3.19,2-.69,1.42-2.93-1.87h-4.36Zm0,5,4.84,0,3.13,1.95-.66,1.43-2.94-1.82h-4.37Zm-50.83-51.44c1.94-2.88,8.27-11.94,11.17-11.94a.93.93,0,0,1,.34.06c1.09.32,1.09,1.83,1.09,2.33,0,3.94,2.06,5.74,4,5.74s4-1.93,4-5.61c0-.53,0-2.14,1.12-2.47,2.7-.8,9.1,8.92,11,11.9l.5.77H246Zm-56.41,0c1.94-2.88,8.27-11.94,11.17-11.94a1,1,0,0,1,.35.06c1.08.32,1.08,1.83,1.08,2.33,0,3.94,2.06,5.74,4,5.74s4-1.93,4-5.61c0-.53,0-2.14,1.12-2.47,2.73-.8,9.11,8.92,11,11.9l.49.77H189.63Zm183.1,51.18a.87.87,0,0,1-.66.18v9.27h-3.7v-9.28h-.13v9.28h-3.7v-9.28h-.85V499.8h9.22l0,.64C373.46,500.92,373.47,501.18,373.25,501.4Zm26.44,0a.7.7,0,0,1-.65.17v9.27h-3.7v-9.28h-.13v9.28h-3.7v-9.28h-.85V499.8h9.22l0,.66C399.91,500.93,399.92,501.19,399.69,501.41Zm19.21,7.7-.53-.48c-.29.73-.94,3.51-.94,13.89v.25l-.2.15a.63.63,0,0,1-.39.13.48.48,0,0,1-.26-.06c-.61-.31-.69-1.43-.56-8,.05-2.56.1-5.2,0-7.22v0a10.42,10.42,0,0,1,.24-2.56c.24-.9.67-1.09,1-1.09,1.12,0,1.64,2.3,1.64,3.85Zm6.18,4.64-.53-.49c-.29.73-.94,3.52-.94,13.89v.25l-.2.15a.62.62,0,0,1-.38.14.5.5,0,0,1-.27-.07c-.61-.3-.69-1.42-.56-8,.05-2.55.1-5.2,0-7.21v0a10.81,10.81,0,0,1,.24-2.56c.24-.9.67-1.09,1-1.09,1.12,0,1.64,2.29,1.64,3.84Zm314.6-13.95h9.22l0,.66c0,.47,0,.73-.2.94a.93.93,0,0,1-.66.18v9.27h-3.7v-9.28h-.12v9.28h-3.71v-9.28h-.85Zm-26.45,0h9.23v.66c0,.47,0,.73-.2,1a.72.72,0,0,1-.65.17v9.27h-3.71v-9.28h-.12v9.28h-3.71v-9.28h-.85Zm-19,8.18c0-1.55.52-3.85,1.64-3.85.31,0,.75.19,1,1.09a11,11,0,0,1,.23,2.56c-.08,2,0,4.68,0,7.23.12,6.57,0,7.68-.56,8a.65.65,0,0,1-.27,0,.6.6,0,0,1-.39-.14l-.19-.15v-.24c0-10.38-.65-13.16-.94-13.89l-.53.48ZM688,512.61c0-1.55.52-3.84,1.64-3.84.32,0,.75.19,1,1.09a10.31,10.31,0,0,1,.24,2.56c-.08,2,0,4.65,0,7.2.13,6.58.05,7.7-.56,8a.58.58,0,0,1-.26.06.67.67,0,0,1-.4-.14l-.19-.15v-.25c0-10.37-.65-13.16-.94-13.89l-.53.49Zm86.52-79.47V422.79l-2.2,1.06,4-8.94,4.93,3.84.63-1.34h-1.31l-4.28-4.1-5.52,10.94-.91-.41,5.31-13.74h5.06l.79,1,5-12.88H791l3-6.46-2.55,5.08-.92-.41,5.31-13.74h2.42l28.43-60.55,25.42-32.35-35,106.84-51.35,55.34Zm-186,74.23a4.61,4.61,0,0,1,1.55-3.52,3.2,3.2,0,0,1,2.64-.75l3,.52-3,.47a3.15,3.15,0,0,0-2.34,3.28v.5h-1.84Zm-16.64-4.23h14l-1.63,2.15H571.91Zm-15.85-6.4h1a21.06,21.06,0,0,1,10.7,3.48l-.58.82c-2.61-1.76-7.35-2.39-10.62-2.39s-8,.63-10.62,2.39l-.58-.82A21.09,21.09,0,0,1,556.06,496.74Zm-27.26,8.55-1.62-2.15h14v2.15Zm-8.42-2.19a3.19,3.19,0,0,1,2.65.75,4.6,4.6,0,0,1,1.54,3.52v.5h-1.83v-.5a3.16,3.16,0,0,0-2.35-3.28l-3-.47ZM286.38,322l28.48,60.64h2.43l5.3,13.74-.91.41-2.58-5.13,3,6.51h4.92l5,12.88.79-1h5.06l5.31,13.74-.92.41-5.51-10.94-4.28,4.1h-1.31l.63,1.34,4.93-3.84,4,8.94-2.21-1.06v10.35l8.82,18.79-51.45-55.52L261,289.75ZM186.13,690.13a66.67,66.67,0,0,0-.7,12.73l0,.46-24.57,2.79,0-.52c-.52-8.61-.65-66.18-.53-75.53.35-19.9,6.7-27,12.06-27h0c6.56,0,13.6,10.16,13.72,28.85ZM215,692.62V700l-.44,0-19.2,2.17-.53.07,0-.54c-.43-7.89-.53-60.54-.43-69.08,0-10.95,2.59-20.26,6.59-23.72a5,5,0,0,1,4.08-1.35c5.9.86,10.53,12.55,10.53,26.61-.06.81,0,6.49,0,13.68C215.7,682.24,215.51,690.85,215,692.62Zm28.17-7a63.29,63.29,0,0,0-.53,10.79v.46L223.44,699V691.7c-.35-1.58-.51-9.1-.42-47.55,0-5.23,0-9,0-9.29.26-17,5.26-23,9.46-23h0c5.09,0,10.55,8.57,10.63,24.37Zm24.43-1.94a57.3,57.3,0,0,0-.49,10v.46l-17.88,2V689.3c-.33-1.58-.48-8.81-.4-44.28,0-4.45,0-7.95,0-8.2.24-15.68,4.9-21.23,8.81-21.23h0c4.75,0,9.83,7.93,9.91,22.54Zm17.49,7.94,0,.44-14,1.59v-.57a90.1,90.1,0,0,0-.29-9.61v-45c.15-12.1,2.9-19.91,7-19.91h0c3.8,0,7.67,7.22,7.72,21,0,5.17,0,9.91,0,14.47C285.51,666.56,285.53,677.44,285.08,691.59Zm8.73-89a11.84,11.84,0,0,1,0,1.35v86.94l-.42.36-.32-.13c-.71-.32-1.1-3.58-.78-66.59.05-9.88.09-18.53,0-20.35L158.69,578.28V575.4l15.28,3v-11.9l-15.28-3.73v-1.49L174,565v-.34l-15.05-3.77v-2l.62.15,17.82,4.45,9.66,2.42c6.84,1.7,9.51,2.36,10.57,2.64v-5h7.85v6.94l.47.12v-7.06h7.85v9l3.37.85V562h-2.77l0-.53a9.5,9.5,0,0,0-2.54-7.14,8.17,8.17,0,0,0-6-2.66h-.1a8.17,8.17,0,0,0-6,2.66,9.51,9.51,0,0,0-2.55,7.14l0,.53h-4.28v-2.51h2a12,12,0,0,1,2.13-5.69h-11.6l20.32-14.41.29.2,20,14.21H214.5a12,12,0,0,1,2.13,5.69h.5v-4.41h2v18.83l35.69,8.91V563.58H255l0-2.24c0-5.59,3.14-8.56,6.43-9.28a8.85,8.85,0,0,0-3.1,1.14c-2.69,1.7-4.08,4.65-3.91,8.31l0,.52h-4.28v-2.51h2a12,12,0,0,1,2.13-5.69H242.72L263,539.42l.29.2,20,14.21H271.76a11.93,11.93,0,0,1,2.13,5.69h.49v-4.41h2v33.11l8.88,2.22v9.49l9.29,1.8-.78.53A3.11,3.11,0,0,1,293.81,602.58Zm-96.05-41.24c.07-6.48,4.2-9.45,8-9.46h0c3.77,0,7.86,2.89,8,9.26l.08.14-.14.26c-.15.26-.19.33-4.4.33l-6.29,0c-2.33,0-4.53,0-4.74,0l0-.49Zm107,124.57a39.9,39.9,0,0,1-5.61.3h-1.72V684.6h.51a46.44,46.44,0,0,0,6.59-.27l.54-.1.13,1.58Zm-6.82-11.38c1.58,0,5.12,0,6.65-.13l.52,0,.06,1.59-.48,0c-1.3.11-3.83.14-5.56.14h-1.7v-1.59Zm-.51-3.45v-1.59h.5c1.9,0,5.24,0,6.68-.07l.52,0,0,1.59-.48,0c-1.29.06-3.87.08-5.66.08h-1.58Zm.51,8.49a64.91,64.91,0,0,0,6.62-.19l.54-.07.08,1.59-.46.06c-1.31.16-3.84.21-5.58.21h-1.71v-1.59Zm17-54.91-1.35-3.39-4.5.71,5.48-4.28,3.9,8.67Zm12.85,1.1-1.17-2.94-4.12.64,5-3.93,3.51,7.81Zm13.66,2.74-1.18-3-4.16.64,5.08-3.95,3.53,7.87Zm14.68,2.08-1-2.57-3.82.59,4.69-3.66,3.2,7.13Zm12.14,1.77-1-2.43-3.7.58,4.56-3.54,3.07,6.83Zm3.58,1.46-3.78-7.49-2.89,2.77h-4.35l4.45-5.43H369l3.75,9.74Zm-1.46-55.17V610l-8.1-2.22V575.12ZM364,574.46l4.41-3.44,2.95,6.55-2.87-1.38-.91-2.29Zm6.41,37.15v2l-.69-.27a.55.55,0,0,0-.35,0c-.11.06-.38.32-.59,1.44-.49,2.92-1.58,3.38-2.21,3.38h0c-1.26,0-2.3-1.79-2.59-4.35-.31-1.73-.71-2.14-1.2-2.22l-.43-.07v-2Zm9.31,22.54-.91-2.28-3.58.56,4.41-3.44,2.95,6.55Zm3.38,1.38-3.56-7-2.72,2.6h-4.18l4.26-5.18h3.55l3.56,9.22Zm-1.32-51.94v29.5l-8.1-2.22V580.06Zm-6.56-3.39,4.42-3.44,2.95,6.55-2.87-1.39-.91-2.29Zm.87,32.89,5.31,1.37.38.09v2l-.69-.28c-.24-.09-.34,0-.37,0s-.37.3-.57,1.31c-.49,2.74-1.57,3.17-2.2,3.17h0c-1.25,0-2.32-1.74-2.61-4.15-.32-1.71-.76-2-1.2-2.09l-.42-.06v-1.93ZM390.62,636l-.83-2.09-3.42.54,4.23-3.3,2.78,6.2Zm14.5,2.77L402,632.61l-2,1.91,2.14-1.66,2.69,6-2.7-1.3-.78-2-3.34.53,1.58-1.23h-3.75l3.84-4.67h3.19l3.14,8.14Zm-8.72-18.55v-1.82l2.41.62,5.31,1.38.38.09v1.85l-.68-.26c-.28-.12-.39,0-.44,0a1.6,1.6,0,0,0-.51,1c-.5,2.39-1.56,2.77-2.18,2.77h-.05c-1.25,0-2.32-1.58-2.61-3.75-.31-1.49-.79-1.76-1.21-1.82Zm17.92,19.42-1.12-2.23,1.1,2.45-2.51-1.22-.66-1.67-3.08.48,1.4-1.09H406.3l3.41-4.14h2.82l2.71,7Zm-6.55-16.49v-1.8l5.51,1.43v1.81l-.69-.29a5.18,5.18,0,0,0-.49,1.58c-.22,1-.42,1.89-1,2.19a.91.91,0,0,1-.41.11.77.77,0,0,1-.25,0c-.92,0-1.19-1.33-1.48-2.73-.13-.64-.44-2.15-.74-2.22Zm1.67-32.89h2.82l2.71,7-.92.41-1.11-2.22,1.09,2.44-.75-.36v24.21l-5.51-1.52V594.91l.46.2.95-.74H406ZM399.3,585h3.19l3.14,8.13-.91.41-3.09-6.12-2,1.89,2.1-1.63,2.61,5.8.13.06v25.82l-8.1-2.22V590l1.51.65,1.29-1h-3.74Zm-11-5.76h3.55l3.56,9.22-.91.41-3.56-7.05-2.72,2.6H384Zm4.83,9.35V616.2L385,614V585l1.6.7,4.41-3.43,2.94,6.55-2.87-1.39-.9-2.29-3.56.57Zm0,29v1.89l-.68-.27c-.26-.1-.37,0-.41,0s-.36.28-.55,1.18c-.48,2.56-1.55,3-2.18,3h0c-1.25,0-2.33-1.66-2.62-3.94-.31-1.6-.76-1.89-1.2-2l-.42-.06v-1.88ZM388,628.27h3.32l3.3,8.54-.92.41-3.26-6.46L388,633.14h-4Zm-7.61-54.6,3.56,9.22-.91.41-3.56-7-2.72,2.6h-4.18l4.26-5.18Zm-14.78-5.74h3.55l3.56,9.22-.91.41-3.55-7-2.72,2.61H361.4Zm-12.47-6.44h4l4.11,10.63-.91.41-4.17-8.27L353,567.33h-4.64Zm-4.24,42.61V569.3L359,573.69v33.17ZM359,608.66v2.05l-.68-.26a.69.69,0,0,0-.67,0,2.22,2.22,0,0,0-.74,1.46c-.61,3-1.89,3.47-2.64,3.47h-.06c-1.5-.05-2.85-2-3.21-4.71-.42-2-1.07-2.4-1.66-2.49l-.42-.07v-2l.63.16,8.52,2.21Zm-2.55-37.75-1.06-2.68-3.92.61,4.8-3.73,3.28,7.3ZM353,621.45h3.91l4,10.28-.91.41-4-8-3.08,3h-4.53Zm-7.16,8.84-4.63-9.17-3.58,3.42h-5l5.22-6.35h4.38l4.51,11.69Zm-3.55-63.91v35.89l-8.85-2.42V562.54Zm-6.81-5,4.6-3.57,3.11,6.91-3-1.45-1-2.47Zm.52,41.33,5.91,1.53.38.09v2.14l-.69-.28c-.27-.1-.38,0-.42,0s-.46.43-.69,1.72c-.53,3.33-1.72,3.84-2.41,3.84h0c-1.37,0-2.49-2-2.81-4.92-.35-2-.8-2.5-1.37-2.58l-.43-.06V602Zm4.94-48.25,3.83,9.89-.92.41L340,557.1,337,559.93h-4.41l4.53-5.5Zm-12.09-6L333,559.23l-.91.41-4.26-8.45-3.29,3.14h-4.71l4.88-6Zm-7.52,48.16V557.26l8.85,3.85V599Zm8.85,4.62v2.19l-.69-.27a.55.55,0,0,0-.4,0c-.16.1-.47.45-.71,1.85-.51,3.36-1.59,4.08-2.42,4.08h0c-1.36,0-2.49-2.1-2.8-5.14-.36-2.15-.79-2.64-1.37-2.73l-.43-.06v-2.18l2.56.66,5.91,1.54ZM328.07,558,327,555.25l-4,.61,4.85-3.77,3.34,7.42Zm-12.6-17.84,5.1,13.2-.91.41-5.29-10.48-4.09,3.92h-5.49l5.8-7.05ZM308,592.9V551.49l10,4.35v39.8ZM318,598v2.25l-.69-.27a.6.6,0,0,0-.56,0c-.23.13-.56.57-.82,1.94-.6,3.65-1.92,4.21-2.67,4.21h0c-1.51,0-2.8-2.27-3.16-5.43-.41-2.31-.94-2.86-1.63-3l-.43-.06v-2.24Zm-3.29-46.31-1.34-3.4-4.52.71,5.49-4.27,3.9,8.67Zm-17.34-28.35,4.92.09,3,1.63-.59,1.47-3-1.6h-4.39Zm0,5,4.91.08,3,1.56-.56,1.49-3-1.54h-4.4Zm0,5,4.9.08,3,1.5-.56,1.48-3-1.46h-4.4Zm0,5,4.81,0,.11.06,3,1.66-.61,1.45-3-1.61h-4.39Zm0,5,4.91.08,3,1.6-.58,1.47-3-1.56h-4.4Zm0,5,4.9.08,3,1.54-.56,1.47-3-1.5h-4.4Zm0,5,4.88.06,3.05,1.41-.52,1.5-3-1.38h-4.42Zm0,5,4.91.08,3,1.55-.56,1.48-3-1.52h-4.4Zm0,5,4.87.06,3.05,1.36-.51,1.5-3-1.33h-4.42Zm0,5,4.84,0L305.3,570l-.46,1.51-3-1.19h-4.44Zm0,5,4.8,0,3.08,1-.38,1.53-3-1h-4.46Zm0,5,4.84.05,3.06,1.19-.44,1.52-3-1.17h-4.44Zm0,5,4.83,0,3.06,1.12-.42,1.54-3-1.12h-4.45Zm0,5,4.81,0,3.07,1.07-.39,1.54-3-1.06h-4.45Zm0,5,4.71,0,3.15.89-.34,1.55-3.08-.88h-4.44Zm0,5,4.79,0,3.08,1-.36,1.55-3-1h-4.46Zm0,5H302l3.25.71-.27,1.61-.54-.17a18.22,18.22,0,0,0-6.06-.57h-1Zm0,5,4.71,0,3.15.86-.33,1.58-.54-.18a12.45,12.45,0,0,0-5.31-.7l-1.18,0h-.5Zm0,5H302l3.26.76-.29,1.6-.54-.17a16.91,16.91,0,0,0-5.72-.61h-1.29Zm0,5.06.49,0a35,35,0,0,1,6.88.45l.43.11,0,.3,5.64-6.86h4.89l3.36,8.72,5.15-6.27h4.34L333,627.12l-.91.41-4.57-9.07L324,621.84h-4.93l1.73,4.46-.92.42-5.28-10.49-4.1,3.92h-5.35l-.13,1-3.15-.5h-4.46Zm0,5,.49,0a37.21,37.21,0,0,1,6.87.4l.43.1-.17,1.55-3.15-.47h-4.47Zm0,5h.49a42.65,42.65,0,0,1,6.85.33l.44.09-.14,1.55-3.15-.39h-4.49Zm0,5h.49a53.86,53.86,0,0,1,6.82.27l.45.08-.11,1.55-3.15-.32h-4.5Zm0,5H302l3.18.26-.1,1.58-3.14-.25h-4.52Zm0,5H302l3.17.2-.07,1.58-3.15-.18h-4.53Zm0,5H302l3.18.26-.1,1.59-3.14-.26h-4.52Zm0,5h7.71V656h-7.71Zm0,5h7.71V661h-7.71Zm0,5,.51,0c1.44,0,5.13.08,6.66,0l.52,0,0,1.61-3,.08h0l-4.68-.07ZM897.54,358.85l-7.45,5.42H905Zm-298,475.8c0-12.73-9.4-20.93-20.83-20.93a22.75,22.75,0,0,0-10.69,2.21l.83-15.66h27.93V790H559l-1.38,31,7.93,5.81a17.31,17.31,0,0,1,9.77-3c7.65,0,12.44,4.43,12.44,10.88s-5.16,10.78-11.8,10.78a39.32,39.32,0,0,1-19.26-5.53v11.24c4.88,2.21,11,4.71,19.63,4.71C590.74,855.85,599.58,846.08,599.58,834.65ZM480.24,854.46V790H470.11l-16.32,8.48v11.15l15.39-7.74v52.62Zm16.22-18.24c0,11.52,8.3,19.63,23.32,19.63,14.19,0,23-8.11,23-18.44,0-7.18-4-12.35-11.34-16,5.25-3.32,9.13-8.47,9.13-14.65,0-10.42-7.84-18.16-21.11-18.16-12.81,0-20.74,7.29-20.74,17.7,0,6.82,3.32,11.06,7.84,13.92C500.33,823.68,496.46,829.21,496.46,836.22Zm22.95-38.17c7.19,0,10.69,4.15,10.69,9.13,0,4.33-3.23,7.74-8,10.23l-6.17-2.49c-3.87-1.65-6.82-4.6-6.82-8.38C509.09,802,512.59,798.05,519.41,798.05Zm-3.32,26.65,7.1,2.94c6.27,2.59,8.39,5.71,8.39,9.4,0,4.71-4.15,8.94-11.8,8.94s-12.35-3.86-12.35-10.41C507.43,830.5,510.84,826.81,516.09,824.7Zm113.63,20.82a37.08,37.08,0,0,1-15.67-4v11a41.22,41.22,0,0,0,15.67,3.32c17.14,0,27-9.13,27-36,0-19.73-8.85-31.34-24-31.34-12.35,0-22.49,8.48-22.49,21.29,0,13,8.57,21.29,20.37,21.29,7.28,0,12.07-2.76,14.84-5.25C645.48,839.71,640.32,845.52,629.72,845.52Zm2.95-24c-6.73,0-11.34-4.79-11.34-11.53a11,11,0,0,1,11.34-11.42c8.2,0,12.35,6.18,12.35,17.41A17.3,17.3,0,0,1,632.67,821.47Zm882.48-474.72h0l-30.6,11.59v147.1h30.64Zm24.3,158.69h30.64v-107h-30.64Zm15.32-128.27A18.82,18.82,0,1,0,1536,358.35,18.81,18.81,0,0,0,1554.77,377.17Zm487.74,0a18.82,18.82,0,1,0-18.81-18.82A18.81,18.81,0,0,0,2042.51,377.17Zm-15.32,128.27h30.64v-107h-30.64Zm-658.67,34.33a18.82,18.82,0,1,0,18.81,18.82A18.83,18.83,0,0,0,1368.52,539.77Zm-15.32,165.9h30.64v-107H1353.2Zm439,0h30.64v-107h-30.64Zm15.32-165.9a18.82,18.82,0,1,0,18.82,18.82A18.83,18.83,0,0,0,1807.55,539.77Zm-509.43,17.48v48.09a47,47,0,0,0-31.8-12c-29.68,0-50,24.73-50,56.69,0,32.17,20.29,57.12,50,57.12a46.68,46.68,0,0,0,31.8-12.05v9.21h30.65V545.67h0Zm0,94.7c-.78,16.55-11.44,26.35-24.84,26.35-13.73,0-24.79-10.5-24.79-28.23,0-17.29,11.06-28,24.79-28,13.4,0,24.06,10,24.84,26.18ZM213.59,863a5.58,5.58,0,0,0,1.42-3.79c2.5-36.81-14.67-70.1-40.45-83.2-3,23.29,2.2,66.93,35.05,87.29a3,3,0,0,0,3.63.05l-.38,0c-2.36-20-11.08-38.15-22-54.6a117.41,117.41,0,0,1-9.38-17.18c6.08,11.69,14.17,21,20.38,32.62A99,99,0,0,1,213.59,863ZM974.15,744.44c-.75.6-1.54,1.41-2.41,1.39-.55,0,0-3.51-.31-7.48-.48-7.2-2.57-16.32-7.7-15.37-5.2,1.78-6.77,9.61-8.49,14.19-.8,2.35-1.65,7.78-3.57,4.69-2.23-3.39-4.94-.35-5.63,3.08-1.64,4.66-.7,14-1.76,17.65-.49.7-1.1,0-2-.45-1.2-.7-2.26-.55-3.58.47-3.18,2.53-2.19,8.93-1.81,10.45s2.56,3.62,2.38,4.67c-.66.9-4-1.9-5.29-.29-1.88,1.91-1.46,6.07-.85,8.37s3.65,4.94,3.43,6-1.05.61-2,1.34-1.42,4.7-1.9,6.19c-.32,1.25-2,3-2.52,4-.53.71-1.52,6.39,1.27,5.57,2.79-2.11,4.62-6.26,7-9.38,8-12.69,15.82-26.42,18.89-41.2-2.15,15.33-13.6,36.9-23.74,51.76,4.74-.69,17.33-11.53,19.85-15.59.34-2.79-2.58,0-2.26-1.88,4-2.64,12-4.11,15.8-8.55,2.49-1.9,6.21-9.5,1.53-10.09-1.37-.1-3,.06-3.52-.74,0-1.57,12.8-15,13-20.81C979.06,749.81,977.67,741.89,974.15,744.44ZM967.68,279.7c-.12.58-2.37-.09-5.09,0-13.41.17-16.58,11-4.32,17.25,2,1.09,4.63,2.31,2.43,4.06-1.76,1.59-2.49,4.84,1,6.33,4.07,2.06,10.49.72,11.19,1.78.44,1.19-1.14,2.24-1.35,3.39-.68,3.51,4.09,4.6,6.31,3.51,1.07-.4,2.93-2.9,3.57-2.66.37.85-2.24,4.89-1.42,6.12.84,2.17,3.59,1.65,5.21,1s4-4.06,4.59-3.81.16,1.13.42,2.18,2.69,1.48,3.53,2,1.64,2.3,2,2.59c1.87,1.49,4.56.09,3.65-2.41-2.5-4.15-5.92-8.71-9-12.84-5.2-5.23-11-10.76-18.08-13.23.16.09.64.15,1,.26,10.49,3.8,18.87,12.27,25.19,21.22l2.31,3.19c.26-1.14.26-3.18-.66-6.78-1.42-4.53-1.77-10.23-4.59-13.8-1.74-.3-.56,2.67-1.71,2.36-.88-4,.07-11.88-2-16.27-.78-2-2-3.39-3.58-3.81-3.21-.79-2.7,4.67-4,5.81-.32.29-1-.87-1.9-2.65-2.63-5-8.43-15.84-14.56-9.72C966.25,276.28,968.07,277.9,967.68,279.7Zm74.38,275.55c-1.65-4.14-4.9,1.54-6.53,1.24-.84-.15,1.36-7.13,2.08-14.24.44-5,1.25-13.69-5.12-14.47-2-.14-1.85,3.18-3.27,4.44-.46.4-1.56-2.54-3.49-5.18-3.5-4.84-9.12-10.06-13.12-5.52s-1,16.32-.41,20.22c.61,4.91-2.3,1.38-4.49,3.85-3,3.13.93,11.37,3,14.53,1.79,3.39,4.47,5.43.76,6.4a4.68,4.68,0,0,0-2.82,3.19c-1.47,4.29,2.33,7.72,3.34,8.43s3.8.37,4.14,1.21c.17.42-.82.84-1.92,1.45-4.73,1.84-2.3,7,.64,8.65,1.57,1,5.28.4,5.59,1.26s-.56,1.21-1,2.43,1.06,4.17,1.37,5.51-.27,3.83-.19,4.49c0,1.38,2,5.13,3.65,2.66,2.31-12.08,1.79-25.87,1-38.48a73.22,73.22,0,0,0-3-16.11c4.67,13.43,4.87,28.37,4.8,42.49-.12,3.78-.26,7.62-.51,11.22,3.42-4.13,8.36-19.19,8.9-25.24-1-2.14-2.09,1.94-2.69.44-.13-1,2.61-4.42,3.59-6.1C1039.65,568.73,1044.15,561.47,1042.06,555.25Zm-14.52-205.13c-.76,1.52-1.33-3.59-2.38-.49.24,6.19.39,20.66,2.3,25.39a346.44,346.44,0,0,0,7.93-43.43,127.61,127.61,0,0,1-2.16,21.86c-1.29,7.26-2.93,15.3-4.22,22.17.13.88-.26,2.15,1.46,2.31,3.06-1.17,2.24-4,3.43-6.77.58-1.12,2.58-3.5,2.5-4.89-1.53-5.25,1.45-1.66,4.77-2.17a5.68,5.68,0,0,0,4.12-5.28c0-2.72-3.57-4.91-3.11-5.7s2.81.4,3.82,0c3.2-1.24,5.46-6.4,4-10.07-.45-2.62-2.9-4-3.59-6.05-.21-1.74,1.06-3.64,2.45-7.13,1.66-2.63.87-7.89,4.34-9.17a10.58,10.58,0,0,0,.06-2.08c0-2-1.63-4.24-3.16-3.81-1,.49-1.94-.86-1.81-4.31.06-8.26,1.84-20-3.1-27.56-4.42-5.21-8.38,2.71-10.85,9-1.35,3.44-2,7.08-2.47,6.67-1.38-1.24-1.62-5-3.38-4.41-2.27.79-3.33,3.16-3.69,6.23-1.31,5.45,3.37,25.3,2.46,26.51-.74.13-1.81-1.36-2.88-2.29s-2.13-1.28-2.9,1c-1.29,4-.31,8.68,1,12.72C1024.4,341.89,1027.19,346.17,1027.54,350.12Zm25.09,55.71c.11,2.4,1.33,9.14.62,9.86-1.54.11-4.06-6.1-5.89-1.85-3.26,8.28,3.64,19.1,4.93,26.65-.84,1.31-1-2.95-2.35-1.11-.74,3.71.38,13.76.45,18.72.14,4.41.45,7.49,1.07,7.79,5-16.74,8-34.48,13.46-51.1-4.69,16.9-7.56,35.27-11.86,52,.11,1-.31,2.19,1.46,2.64,3.27-.68,2.47-3.79,3.8-6.39.67-1.1,2.83-3.24,2.81-4.66-1.32-5.74,1.62-1.5,5.06-1.43a5,5,0,0,0,4.52-4.83c0-2.88-3.71-5.79-3.22-6.55s3,.91,4,.61,5.29-2.23,4.73-8.19a7.62,7.62,0,0,0-2.07-5c-3.19-2.4-.69-3.74,1.63-7.31,4.22-4.56,7.87-18.31,1.59-19.35-1.17.14-2-1-1.57-4,1-4.8,2.84-21.78-1.22-26.91-4.35-6.22-8.93,1.1-11.85,7-1.64,3.29-2.57,6.77-3,6.29-1.26-1.09-1.13-5.18-3.24-5.13C1049.17,386,1052.47,399.33,1052.63,405.83Zm13,6.59c.48-1.26.11-.23-.23.76C1065.5,412.93,1065.56,412.67,1065.64,412.42ZM1042.58,471c-1.57-1.14-1.22,2.71-2.24,1.85.24-4.95,3.23-13.3,2.53-19-.15-2.53-.87-4.68-2.27-5.93-2.79-2.43-3.82,3.87-5.35,4.51-2-4.76-1.94-15.91-5.94-20.37a4.25,4.25,0,0,0-5.76-1.22c-1.86,1.07-.61,3.71-1.53,5.33-.29.57-2.14-1.23-4.67-2.35-10.73-5.25-17.54,2-11.55,12.52a62,62,0,0,0,4.19,6.89c1.11,1.78.62,2.89-.6,3.27s-4.25,3.38-.93,7.8c2.12,3.49,8.16,5.27,10,7.55-.05,1.92-3,2.76-2.65,6.34.08,4.19,4.52,4.77,5.64,4.76s3.45-1.84,4-1.37-3,3.52-2.61,5.66c.29,2.53,3,3.12,4.77,3.05,3-.31,6.64-4.92,5.21.34,0,1.21,2.21,2.71,2.9,3.6s1,3.19,1.29,3.67c.89,1.67,3.52,2.55,4,.05-.5-5.63-3.21-11.7-5.19-17.3-3.44-8.52-7.22-17.4-13.16-24.45l-.79-.83c.14.16.55.49.82.77,9.82,11.13,15.56,25.85,20.06,39.81C1044.59,491,1044,475.9,1042.58,471Zm-23.95,158.34c-1.88-1-2.57,2.34-4.22,3-.53.19-.81-3.17-1.95-6.58-2-6.23-6.05-13.63-10.89-11-4.43,3.08-4.46,10.82-5.15,15.71-.29,2.54,0,7.72-2.61,5.76-2.94-1.67-4.92.51-5.11,5.23-.43,6.84,2.86,14.76,2.22,16.44s-3-1.35-5.57,2.28c-2.16,2.78-.68,7.84.69,9.93.72,1.18,3.41,2.16,3.49,3.14s-4.17-.24-5.31,1.87c-1.35,2.49,0,5.88,1.23,7.66,2.1,2.94,7.36,2.8,3.18,5.83-.76,1-.25,4.63-.36,6.1s-1.35,3.77-1.46,4.48-.25,3,.65,4.12c1.39,1.4,2.13-.06,2.65-.65,6.63-16.81,12.92-36,12.9-54.56a62.44,62.44,0,0,1-.11,9.65c-1.41,15.56-5.75,31.12-11,45.74,3.28-1.08,6.34-6.89,9-10.1,1.38-2,9.75-13.28,5.16-11.66-.6.35-1.19.78-1.25-.1,3.28-3.91,10.64-8.16,13.47-13.48a12.56,12.56,0,0,0,2.09-7.38c-.43-4.86-5-.57-6.44-1.59-.5-1,2.85-6.26,3.69-8.43C1020.12,644.41,1025.62,634,1018.63,629.31ZM1015,352.93c-.56,1.53-.88,3.33-1.6,3.88-2.78-3.29-4.87-14-10.11-17.12-1.9-1.21-3.94-1.19-6.07.94-1.64,1.64.16,3.75-.39,5.77-.18.64-2.4-.35-5.23-.5-5.12-.3-12.11.9-12.92,7.49-.6,5.73,4.91,10.34,9.34,12.72,1,.65,1.2,1.27.65,2-2.35,1.67-3.74,5.75,4,8.08-4.8.64-5.75,5.62-3.63,6.9a3.1,3.1,0,0,0,2.32.49c2.5,0,8.3-1.58,9.74-.61.18.69-1.58,2-1.77,3-.5,2.42.68,5.66,3.29,6a7.07,7.07,0,0,0,3.38-.22c1.12-.37,3.16-3.06,3.82-2.76s-2.36,4.66-1.66,6.8c.83,2.51,3.75,2.15,5.46,1.49s4.27-4.34,4.93-4,.14,1.33.39,2.56,2.79,2,3.65,2.64,1.62,2.88,2,3.26,1.73,1.35,2.91.74a2.49,2.49,0,0,0,1.18-2.1c-2.55-7.15-8.11-15.56-13-21.81-2.26-2.81-13.14-16.76-13.2-16.8s7.7,9,8.71,10.25c2.75,3.33,6.18,7,8.66,10.57,3.28,4.67,7.42,10.27,10.16,15.18.49-2.46.12-4.87-.5-8.08-1-5.1-1.92-10.37-3.5-15.09-.52-1.36-.71-2.08-1.67-1.54-.69.63-.24,2.77-1.17,2.42-.65-3.25.69-7.14-.7-12-.34-2.95-.54-6.44-1.46-9C1020,351.34,1016.14,348.64,1015,352.93ZM991.28,245.25c-1.22.9-5.09-3.22-5.33,1.48-.47,8.21,8.42,14.78,11.77,20.85-.32,1.58-1.67-2.09-2.23.21,1.22,4.72,5.74,20,8.13,23.08.28-17.34-3-40.39-3.2-55,.54,14.94,3.83,30,4.16,45,.39,3.68,0,7.6.91,10.79,0,0,.58,1.14,1.56.58,2.43-2.12,1.08-4.43,1.48-7.45.27-1.29,1.5-4.22,1.12-5.38s-1.11-1.47-.86-2.34,3.35-.36,4.67-1.41c2.38-1.51,4.39-7.11.24-8.81-4-1.95,0-1.72,1.75-2.79a9.77,9.77,0,0,0,2-3.07c1.78-3.73-.42-9.3-3.92-11.17-1-.39-1.65-.28-1.93-1.27-.5-2,2.77-8.89,2-16.82-.6-4.73-2.27-8.6-5.53-7.47-.92.76-1.92.14-2.51-2.75A104.58,104.58,0,0,0,1003,210.3c-3.84-13.75-12.43-18-13.92,1.07-.36,3.66-.08,7.09-.58,6.94-1.52-.5-2.66-3.82-4.08-2.59-4.8,4,.49,15.05,3.44,21.26C988.71,239.06,991.68,244.33,991.28,245.25ZM833,903c4.39-3.94,7.18-9.44,4.6-15.49-.94-2.4-2.39-.12-3.83-1,0-3,1.63-14.28.26-18.94-3.38-16.24-9.84-2.79-13,4.65-1,2-1.78,1.39-2.14-.33-4.83-11.78-8.28,14.82-9.46,16.43-.82.68-1.29-2.15-2.9-2.88-2.55.76-8.47,1.21-10.87,2.59-4.4,1.7-5.52,8.21-4.26,11.44,1,2.16,7,6,.21,4.5s-7.78,6-5.51,9.78c.61,1.73,4.87,3.62,5,5.21-.21,1.13-1.26.84-2.39,1.8-1.21,1.11-1.16,5.18-1.44,6.63-.73,2.9-2.57,4-2.27,6.64.48,4.66,3.41,3.69,4.66.11a113.07,113.07,0,0,1,13.36-20.27l3.49-.7c5.88-6.7,11.38-14.32,14.33-22.72-.21.6-.5,1.67-.8,2.42-3.06,8.05-8.06,15.5-13.53,22.19l-3.21.64a112.2,112.2,0,0,0-13,21.88c3.71-1.16,6.84-4.9,10.44-7.21,2-1.13,3.59-2.86,5.79-3.13,3.25-1.12,6.49-2.77,4-4.44-.54-.23-1.11-.36-.82-1.2,1.61-.8,5.88,1,8.22.84,4.19.2,8.85-.83,10.33-5.67a3.64,3.64,0,0,0-1.2-4.43c-1.08-.88-2.41-1.47-2.73-2.57S828.9,906.75,833,903ZM57.94,447a88.37,88.37,0,0,1-6.63-19.83c-5-22.09.28-45,.17-67.25,1.43,28.84-5.09,59.47,7.34,86.72l-.37.33a5.12,5.12,0,0,0,3.34-3.34C78.66,405.3,70.55,364.49,50,341,37.18,365.71,29,410.77,54.69,445.2A3.67,3.67,0,0,0,57.94,447Zm1.3,68.31a3.17,3.17,0,0,0,3.39,0,68.49,68.49,0,0,0,27.61-31.8c10.45-25.1,5.2-56.37,5.2-56.37-28.16,12.63-42.78,46.36-38.7,83.48A6.23,6.23,0,0,0,58.8,515c7.11-9.42,15-20.52,18.41-33.06,4.41-12.59,6.35-26.95,11.7-39.17-4.39,12.88-6,27.1-10.25,40.09C74.78,495.13,68.48,506.89,59.24,515.29ZM199.92,160.14c26.27-6.06,42.74-30.18,63-45.94-15.19,13.21-27.67,31.52-45.88,40.87-2.87,3.14-23.17,6.08-14.06,7.9,40,2.38,66-38.71,73.63-58.86a64.91,64.91,0,0,0-45.51,12.17c-15.35,11.32-25.77,29.5-30.64,39.37C199.36,156.89,199.71,162,199.92,160.14ZM53.48,599.19a3.63,3.63,0,0,0,3.84.42,70.86,70.86,0,0,1-11-17.23c-9.91-20.91-8.58-45.78-13.15-68.07,7.36,28.12,5.73,61,25.07,84.56l-.34.49a7.25,7.25,0,0,0,2.93-4.8c9.41-41.71-2.6-81-33-98.72C20.54,520.9,16.1,572.64,53.48,599.19Zm252.65,328c-3.32-36.25-23.4-65.21-53.4-70.33.61,21.54,10.78,66.32,48.66,76.35A3.28,3.28,0,0,0,305,932l-.38.16c-6.2-26.15-26.85-41.9-42.58-61.89,17.43,18.39,38.15,34.69,43.25,61.26A6.86,6.86,0,0,0,306.13,927.22Zm-74.7-42.87c-24.74-12.75-53-5.76-53-5.76S190.25,906.23,215,919c17.34,8.94,36.41,8.18,46.27,6.92,11.24-3-12.54-3-16.06-5.79-20-6.2-34.15-22.54-51.3-33.55,12.24,6,22.2,15.89,33.8,22.88,11,7.81,25.32,11.13,37.41,13.81a5.15,5.15,0,0,0-.31-4.78C259.76,909.54,248.76,893.29,231.43,884.35Zm-84.25-97.28c-20.51-17.74-47.25-13.91-47.25-13.91s6.53,32.57,27.05,50.3c14.38,12.42,31.81,14.26,41,14.25a4.3,4.3,0,0,0,3.54-1.92c-27.7-5-41.42-32.44-58.71-51.54,18.84,17.49,32.35,43.9,59.15,50.47l-.08.57a7,7,0,0,0,.45-5.4C169.07,819.21,161.56,799.49,147.18,787.07Zm-43.2-55c-28.76-11.05-37.52-44.34-52.22-68.4,16.58,22.71,25.45,54.64,52.85,67.26l-.18.63a8.76,8.76,0,0,0,1.35-6.08c-1.56-12.7-6.09-36.41-18.92-52.94C68.57,649,40.31,649,40.31,649S41.72,687.16,60,710.74c12.82,16.53,30.54,21.49,40,23A4.34,4.34,0,0,0,104,732.11ZM76.81,383.29c20.89-14.27,27.45-40.7,40-61.34-11.07,21.49-17.52,48.83-39.47,62.12a3,3,0,0,0,3.14.54,64.44,64.44,0,0,0,30.81-24.83c13.83-21.47,14.17-51.25,14.17-51.25A63.71,63.71,0,0,0,89.52,335c-9.7,15-12.77,34.18-13.73,44.28A5.89,5.89,0,0,0,77,383.75Zm15.39-62c-9.76-26.53,3.77-54.4,9.17-80.44C97.83,267.14,85,294.34,93.19,321l-.45.3a6.69,6.69,0,0,0,4.14-3c22.39-31.75,25.89-69.58,6.36-94.87,0,0-20.52,25.85-23.52,53.79A69.74,69.74,0,0,0,89.1,319.6,3.27,3.27,0,0,0,92.2,321.28Zm46,451.18a5.26,5.26,0,0,0,2.52-3.22c3.31-10,8.39-29.72,5.48-49.73-4.16-28.56-23-46.91-23-46.91-10.51,23.93-15.83,67.86,10.9,98.7a3.37,3.37,0,0,0,3.68,1.38l-.4-.11a116.31,116.31,0,0,0-1.61-41.89c-2.77-13.69-8.17-26.22-10-40.22,2.87,13.73,8.47,25.83,11.49,39.54A103,103,0,0,1,138.2,772.46Zm7.41-562.4c1-26.61,19.78-47.66,32.61-69.61-8.19,17.62-21.85,33-27.67,51.68-2.39,5.83-2.72,12.93-4.54,18.13a4.54,4.54,0,0,0,4-1.13c29.47-22.12,40.86-56.93,35.19-83.85,0,0-23.34,15.39-34.53,39.64-7.84,17-7.62,33.83-6.79,42.38A3.2,3.2,0,0,0,145.61,210.06ZM83.31,655.54a3.75,3.75,0,0,0,3.12-2c5.08-8.36,13.64-25.51,14.14-46.65.7-30.17-15.3-57-15.3-57s-17.13,22-17.84,52.18c-.49,21.15,7.22,40.68,11.88,50.47a4.92,4.92,0,0,0,3.5,3.06c.74-6.21,3.92-13.6,4.39-20.72,3.4-21.89-2.82-44.17-2.37-66.12C87,597.36,95.46,628,83.31,655.54ZM905.87,828c-1.49-2.11-3,1.06-4.64.67-.54-.11.1-3.77-.06-8-2-27.29-12.16-20.18-17.27-.51-.84,2.48-1.8,2.29-2.49.71-5.15-8-5.7,9.77-6,12.82-.45,4.08.39,9.73-2.52,6.16-2.86-2.89-5.65,1.68-5.58,5a24.19,24.19,0,0,0,.13,5.29c.25,1.75,2.15,4.55,1.94,5.64-.59.89-3.59-3.18-4.86-1.71-1.82,1.56-1.71,6.14-1.3,8.78s3.06,6.29,2.79,7.35-1,.38-2,.92-1.66,4.7-2.22,6.17c-1.91,3.41-4,3.81-3.48,8.35.39,1.81,1.58,1.6,1.58,1.6,12.29-12.17,23.38-30.9,26.72-48.47-.12.7-.3,1.95-.5,2.83-3.22,17.5-13.34,33.48-24.12,47.34-.38.53,1.41.22,2.19,0,5.31-1.7,17.51-10,17.71-11.85.45-2.94-2.48-.53-2.08-2.49.19-1,4.44-.93,9-2.36,4.38-1.25,9.38-4.65,10.25-10.05.45-2.75-.69-3.54-2-4s-2.91-.48-3.45-1.43c1-3,6.41-7,8.84-10.79C906.34,840.76,909.93,834,905.87,828ZM369.27,978.61a4.65,4.65,0,0,0-1.51-4.29c-7.25-7.27-22.31-20.21-41.92-25.45-28-7.49-54.6,3.51-54.6,3.51S290,975.51,317.93,983c19.61,5.25,38.55,1.42,48.13-1.34,10.38-4.54-13.87-.72-17.55-2.61-21.55-2.3-39.83-14.8-59.77-22,13.75,3.42,26.2,10.75,39.58,15.19C341.25,977.49,356.31,978.17,369.27,978.61ZM974.93,820.39c-3-1-6.62-.64-9.7-.11-3.44.56-6.28,2-6.42,1.2-.47-2.38,1.88-5.25-.09-7.29-8.32-7.07-15.14,10.34-18.74,15.53-1.43,2.4-2.43,3.93-2.79,3.52-1.45-1.57-.12-8.72-4.31-7.84-8.45,3.16-7.75,17.82-11.67,24-1.52-.14,1-3.18-1.31-3.52-.31,0-.89.39-1.64,1.17-4.15,5.33-11.27,11.16-14,17.24a222.06,222.06,0,0,0,31.64-12.65c5.07-2.16,9.84-5.34,15.08-6.86-14,6.59-27.54,15.36-42.24,20.55-1.63.77-3.37.86-4.35,2.13a2.59,2.59,0,0,0,.15,2.67,4.31,4.31,0,0,0,3.36,1.87c.59,0,2.56-1.21,3.82-1.06s4.32,1.45,5.22.51c2.81-5.73,2.56,2.22,5,5.35,3.41,4.58,8.26,4.45,8.1-2.3.09-7.47,1.65-.45,3.31,2,5.13,5.66,11.48,1.2,10.94-5.66-.14-1.62-.48-2.77.24-3.47s3-.12,6,.2c4,.55,8.84,0,12-2.86,2.36-2.32,3.76-5.81,3-8.9-1-2.62-3.14-3.79.18-6.57a67.8,67.8,0,0,0,8.27-7.2C979.82,837.09,984,823.23,974.93,820.39Zm51.38-95.83c-3.15,1.1-5.66,3-5.94,2.18-.88-2.43.78-5.82-1.45-7.69-2.83-2.2-5.15-1.62-7.06.36-4.24,3.08-8.78,23.39-10.3,22.94-2.06-3.06-2.48-12.26-8-5.73-4.44,6.55-2.26,18.32-4.31,24.74-1.5.09.3-3.45-2-3.46-1.39.44-4.34,7.46-5.81,10-1.67,3.36-5.54,9.81-5.14,12.13,10.83-6.28,21.21-13.92,31.3-21.36,3-2,6.12-4.4,9.29-5.88-6,3.57-11.39,8.62-16.93,13-7,5.86-15.07,11.63-22.27,16.67-.56,1.09-1.22,1.46.23,3.62,3.56,3.08,4.29.13,7-.57,1.21-.09,4.44.7,5.08-.44s.28-2.45,1.16-2.44,2.93,5.34,4.78,7.08,5.22,3.8,7,1.37c1.53-1.74-.89-7.62-.16-8.67.89-.06,2.65,4,3.91,5.05s6.58,4.27,8.87-1c2.15-4.12-1-7.37-.24-10,3.23-1.58,10.52.61,14.91-3.43,4.08-2.56,4.3-9.47,1.58-12.16-2-1.5-.87-4.56,1.3-6.55a51.58,51.58,0,0,0,5.62-7.68C1046.62,734.1,1042.55,718.16,1026.31,724.56ZM1074,501.62c-2.38,2.45-4,5.42-4.39,4.74-1.23-2.12-.5-6-2.58-6.67-2.68-.84-4.45.75-5.65,3.5-2.79,4.59-2.75,26.44-4,26.7-1.68-.68-3.16-8-6-4.79-1.43,1.64-2,4.17-2.14,7.07-.57,6.61,2.38,15.66,2.25,21.67-1.16.85-.53-3.44-2.31-2.31-1.71,4.24-1.91,10.67-2.84,15.58-.67,3.36-1.7,10.69-.79,11.11,9.23-14.77,16.29-31.46,26.24-45.75-5.85,8.75-10,18.91-14.84,28.31-3.07,6.33-6.79,13.2-9.88,19.15-.12,1.18-.74,2,1,3.35,3.51,1.07,3.45-2.27,5.39-4.25.93-.73,3.65-1.68,3.88-3.09-.45-6.58,2.51-.1,5.73,1.27,1.84.65,5,.86,5.79-2.34.88-1.91-2.34-6.79-2.06-8.06.68-.5,3,2.44,4.21,2.73,5.78,1.46,8.73-6.06,5.56-11.55-.74-1.27-1.47-2-1.21-3.06,2.35-3.09,9-5.1,11.12-10.33,2.43-4.54,2-9.67-1.19-11.67-3-1.24-.52-5.6.68-9C1091.39,513.06,1091.41,484,1074,501.62ZM1067.88,622c-3,1.42-5.38,3.66-5.62,2.82-.73-2.59,1-6.11-1-7.61-2.53-1.93-4.72-1.1-6.61,1.08-4.86,5.26-7,18.84-10.57,24.17-1.53-1.39-1.24-9.13-4.9-7.19-7.39,5.38-4.71,20.37-7.07,27.55-1.38.3.34-3.53-1.75-3.24-3.34,4.08-5.4,11.17-8.12,16-1,2.26-2.85,5.91-2.44,7.61,13.11-9.68,24.46-22.3,37.73-31.72-10.56,8.29-24.47,24-36.7,34,.21.31-1.42,1.53.27,3.67,3.27,2.62,4-.64,6.48-1.61,1.13-.26,4.13.08,4.75-1.14s.28-2.53,1.09-2.63,2.68,5,4.34,6.44,4.82,3.1,6.43.39c1.39-2.34-.79-8.48,0-8.61s2.36,3.66,3.51,4.49a7.52,7.52,0,0,0,3.73,1.31c1.64.05,3.45-.68,4.49-3.48,2.12-5.6-1.08-8.14,0-9.86s8.5-.1,13.89-5c3.87-3.45,4.22-9.11,1.77-11.94-1.19-1-1.42-2.82.31-5.14a65.63,65.63,0,0,0,6.61-9.51C1085.46,631.73,1084.71,613.39,1067.88,622ZM818.27,962.42c-2.8-1.87-6.86-2.86-10.38-3.5-3.92-.71-7.54-.45-7.36-1.22.4-2.19,4.08-3.82,2.77-6.3-1.71-2.94-4.43-3.59-7.46-3-5.54.08-21.65,12.21-23.09,11.16-.76-2.1,3.24-7.38-1.42-8.17-8.32-1.63-15.37,11.25-21.16,14.91-.78-.36-.22-.89.23-1.51s.81-1.3-.31-1.87c-.64-.31-3.3.65-6.6,2,.43-.34.86-.7,1.3-1.06-3.76,2.82-9.7,5.93-10.84,10.78,13.76-5.52,27.54-2.51,42.15-2.84,2.19.11,4,.29,5.89.55-7.82-.63-16.09.06-24,.24-6.81.12-12.42-.13-19.19,2.5-1.45.59-3.19.9-4,2.1-.89,2.2,3.52,3.28,4.68,3,.59-.07,2.2-1.09,3.43-1s4.57,1.09,5.2.56.31-1.44,1.17-1.23c.43.12,1.14,1.11,2,2.22,1.87,2.83,6.71,6.2,9.5,5.73,1.14-.2-1.06-4.16-.35-4.14,2.85,3.06,5,5.84,9.6,7.6,2.79,2.15,8.87,5.42,14.77,5.28,4.49.33,9.58-3.47,8.28-7.53-.68-1.51.05-3,3.1-3.56,8.08-1.41,20.57-4.28,24.63-12.74C822.45,967.53,821.4,964.52,818.27,962.42Zm-312.15,51.89a5.41,5.41,0,0,0-2.58-4.47c-9.35-6.38-28.27-17.2-50.22-18.21-31.32-1.43-57,17.66-57,17.66s25.13,21.41,56.46,22.84c21.95,1,41.12-8.07,50.62-13.59a5,5,0,0,0,2.6-3.63,86,86,0,0,1-21.78,5.09c-23.37,2.81-45.56-6.72-68.31-9.81,7.69.12,15.33,1.66,22.83,3.18C460.81,1019.13,484.9,1019.86,506.12,1014.31ZM421.51,981.6c-7.28-9.65-15.87-21.37-26.66-28.28-10.1-7.49-21.13-11.92-30.69-20.37,15.54,10.7,33.26,16.53,45.83,31.5,3.36,1.87,14.72,24,11.36,12.22-12.51-34.19-39.35-57-69.65-54.29,0,0,9.08,30.07,29,47a61.73,61.73,0,0,0,37.61,14.34A3.26,3.26,0,0,0,421.51,981.6Zm95.73-13.54c-18.88-11.28-40.47-5.95-40.47-5.95s9,23.64,27.91,34.92c13.24,7.91,27.8,7.65,35.33,6.79a3.56,3.56,0,0,0,2.94-2.16l-.3.25c-13.06-18.53-35.23-22.85-54.07-32.73,19.65,8,42.26,12.62,54.5,32a4.86,4.86,0,0,0-.37-3.6C538.87,989.94,530.48,976,517.24,968.06Zm214.59-5.51c-.12-1.13,6-1.9,11.65-4.63s10.61-7.39,9.08-14.39c-.28-1.36-1-1.52-1.79-1.51-4.73.36-1.25-2.32.2-7.71,5.51-18,1.38-29.94-13.81-10.31-1.65,1.7-2.4,1-2.38-.87-.23-3.22-2.3-5.51-5.8-1.27-3.31,3.23-6.76,12.81-9.12,15.37-1.11.47-1-2.5-2.64-3.64-3.11.12-10-.93-13.16-.15-5.15.47-8.4,6.51-7.7,10.4a8.56,8.56,0,0,0,1.74,2.94c2.3,3.09.86,3.16-2.6,1.64-1.83-.64-4.09-1.29-5.76-.37-3.91,2-3.68,6.37-3,8.79.27,1.87,4.73,4.85,4.53,6.5-.51,1.08-1.65.53-3.2,1.21s-2.59,4.85-3.27,6.28-3.17,3.44-3.55,4.13c-.9,1.39-1.41,5.33,1,5.66.89.19,1.3-.36,1.94-.62a120.44,120.44,0,0,1,20.24-17.46c1.92-1.79,3.19-1.16,6-1.1,8.23-5.14,16.43-11.27,22.06-19.17-5.63,8.58-14,15.31-22.52,21.07l-3.85-.17A116.8,116.8,0,0,0,686,981.67c-.41.39.7.1,1,.09,5.62-1.34,12.41-4.91,18.36-6.26,2.52.25,7.51-.61,7.71-1.35,1.56-2.3-2-1.77-1-3.44.8-.62,4.25,1.36,5.87,1.82,5.38,2,13.06,3.62,16.69-2C737.42,966.61,732.5,965.27,731.83,962.55Zm-33.57,43.51c-3.09-2.34-7.68-3.82-11.68-4.87-4.44-1.16-8.61-1.22-8.35-2.06.39-1.28,1.62-2.28,2.6-3.29,4.06-4.25-3.59-8.36-7.41-7.48-6.29-.47-25.54,11.38-27.15,10.09-.71-2.47,4.14-7.86-1.12-9.16-9.36-2.62-18.24,10.85-25.18,14.43-.87-.47-.2-1,.36-1.65,2.18-3.62-3.57-1.87-7.93-.51,3.48-2.26-1.33.58-2.81,1.39-2.92,2.08-8.49,5-8.55,8.37,16.23-4.7,31.64-.05,48.31,1,2.5.34,4.57.71,6.72,1.17-8.91-1.44-18.45-1.49-27.57-2.05-9-.78-17.15-1.24-26.26,2.13.44.11-2,1,.19,3,4,2.67,4.81.71,8.39.64,1.39.16,5.17,1.65,5.93,1.12s.44-1.56,1.42-1.24c1.38.93,3.47,5.1,5.17,6.22,2.35,1.89,9.41,6.73,7.62,1.11-.33-1.16-.69-2.27-.24-2.05,3.23,3.8,5.15,6.76,10.52,9.32,4.13,3.77,18.52,11.66,25.38,4.31,3.52-4-2.23-7.3,5-8.2,9.17-.81,23.66-2.59,29-11.69C702.78,1012,701.64,1008.61,698.26,1006.06ZM591,995.57c5,1.28,13.69,9.29,19.37,2.78,2.6-3.13-1.63-5-2-7.33,0-1,5.25-.88,10.25-2.53a15,15,0,0,0,6.54-3.89c1.57-1.31,3.86-8.13.58-9-4-.26-1-2.12.6-6.66,5.52-14.15,3.2-26.17-11.29-10.71-1.5,1.26-2.1.52-2-1.06-.76-8.93-8.59,2.09-10.3,5.52-1.51,2.51-2.66,4.64-3.28,4.8-1,.26-.68-2.29-2.06-3.5l-7.83-1.52c-5.6-1.69-11.1,2.21-10.62,7.75-.07,1.18,2.63,4,2.07,5.06-1.43.36-5.83-3.52-8-2.27-3.46,1.27-3.5,5.06-3,7.25.13,1.66,3.79,4.81,3.54,6.22-.5.88-1.46.25-2.82.64s-2.49,3.9-3.15,5c-2,2.63-4.95,3.28-3.91,7,1.92,3.18,4.31-.73,6.2-2a96.16,96.16,0,0,1,16.65-10.64l3.58.7c6.65-3.06,13.27-6.92,18.42-12.1a56.32,56.32,0,0,1-12.76,10.28c-2,1.23-4,2.31-6.16,3.4l-3.29-.64a89.37,89.37,0,0,0-18.47,13.59c5.29.19,11.58-2.68,17.13-3,2.76.63,9,.78,6.5-2C591,996.49,590.45,996.17,591,995.57ZM126.14,261.51C150,253,163,229,180.29,212.23c-12.83,13.85-22.62,32-38.61,42.6-2.43,3.24-21.26,8.37-12.35,8.87,37.58-2.84,57.35-42,62.72-62.28A63.72,63.72,0,0,0,150.61,218c-13.18,12.11-21,29.86-24.45,39.38a5.92,5.92,0,0,0,0,4.62Zm769.64,652.7c-2.66-1.68-6.31-2.51-9.45-3-3.49-.57-6.6-.23-6.54-1,.11-2.13,3.06-3.78,1.62-6-4.21-5.76-10.17-1.69-14.9,1.4-7.6,4.82-12.2,11.63-10.52,2.81.08-1.6-.25-3.05-2.35-3.41-7.48-1.29-11.95,11.05-16.5,14.6-.72-.32-.3-.84,0-1.43s.54-1.24-.51-1.75c0-1-7.83,3.76-4.48,1-3,2.75-7.79,6.08-8,10.43,9.84-5.1,19.85-3.16,30.47-3.79a82.56,82.56,0,0,1,10.95.34c-7.7-.4-15.73.67-23.5,1-5.12-.14-14.3,1.59-16.88,4.79,0,0-.31,1,.94,1.88a5.57,5.57,0,0,0,3.49.8c.51-.08,1.78-1.09,2.85-1s4.11.91,4.59.39.09-1.36.87-1.18c1.07.56,6,7.74,11,7.17,1-.23-1.44-3.91-.81-3.88,2.56,2.53,5.37,5.56,9.28,6.88,3.49,2.67,15.43,8.22,19.57,1.25,2-3.56-2.85-5.91,2.41-7.41,4.92-1,12-3.2,16.1-7C899.88,924.6,901.22,917.19,895.78,914.21Zm36.45-750c1.29,1.77.67,2.75-.63,3-2.82.91-3.63,3.88-.94,7.11,2.27,3.45,9,5.93,10.93,8.34-.05,1.87-3.16,1.89-3,5.68,0,4.16,4.76,5.4,6,5.56s3.81-1.29,4.42-.74c.3.28-.53,1-1.41,2-3.91,3.3-.38,6.76,3.31,7,3.18.21,7.32-3.88,5.63,1.18,0,1.21,2.25,3.06,2.95,4.06s.88,3.36,1.16,3.89c.62,1.52,3.58,3.33,4.35.73-.2-5.81-2.83-12.28-4.67-18.13-3.42-9.23-7.6-18.8-14.44-26-1-.94.14.1.52.43,10.84,11.33,16.59,27.09,20.59,42,2.21-4.49,2.45-20.06,1-24.91-1.67-1.37-1.4,2.48-2.48,1.48-.27-.25,0-1.51.58-3.37,1.64-6.26,5-15.59,0-21-3-2.68-4.12,3.18-5.92,3.73-1.75-2.08-3-25.84-13.51-21.76-2,.76-.57,3.3-1.46,4.89-.29.51-2.48-1.34-5.37-2.58-10.86-5.23-19.89-.48-12.39,10.68C928.77,159.74,930.94,162.58,932.23,164.22ZM913.94,216c0,4.22,4.6,6.81,7.91,8.43,1.94.86,4.48,1.78,2.56,3.58-1.51,1.61-1.94,4.68,1.37,5.81,4.05,2,11.22-1,10.57,1.67-.45,1.26-1.55,2.37-.88,3.81,1,2.2,4.43,2.26,6,1.37.95-.44,2.5-2.91,3.11-2.73.3.09-.11,1.13-.5,2.35-1.76,4.12,1.11,5.84,4.55,3.93,2.26-1.25,4.35-6.66,4.53-1.89.33.95,2.61,1.18,3.43,1.56s1.69,2,2.06,2.27c2.11,1.23,4-.24,3.27-2.51-6.87-9.2-15.34-18.57-26.65-22.07a18.91,18.91,0,0,1,2.9.76c10.18,3.75,18.23,11.62,24.9,19.89.14-4.36-3.27-13.11-5.42-17.53-.42-.71-.77-1.17-1-1.19-1.64-.15-.32,2.52-1.41,2.32-1.6-4.74-.15-16.1-6.69-18.24-3-.49-2.16,4.54-3.29,5.7-.8.23-2.7-3.81-3.71-5-2.76-4.17-8.28-10.57-12.51-5.29-1.29,1.55.52,2.92.29,4.62-.07.55-2.2.1-4.72.42C920,208.63,914,210.61,913.94,216Zm-60.76-89.81c-1.26.87-4.33-.52-4.28,1.46.79,9.67,19.29,11.08,25.52,14.89-.07,1.59-5.34,1.82-2.06,5.25a12.68,12.68,0,0,0,6,3.39c4.85,1.74,11.78.41,16.06,1.65,1,1.35-2.51-.11-1.16,1.92,4.15,2.29,17.88,9.22,21.55,9.47-13.3-12.94-28.76-23.45-42.38-35.87,11.29,10.09,24.4,18,35.66,28.19,2.9,2.23,5.53,5.22,8.38,6.73a1,1,0,0,0,1.34-.85c-.12-3.39-2.58-3.91-4.55-6.31-.78-1.1-2.18-4.1-3.25-4.6s-1.72-.13-2.2-.92,1.7-2.92,1.72-4.69c.3-2.92-2.59-8.39-6.26-6.27-3.75,1.81-1.25-1.19-1-3.31-.11-5.77-6.65-10.43-11.45-8.33-.85.51-1.18,1.12-2.06.66-1.72-1-4.82-8.33-11-13.18-3.79-2.78-7.59-4.13-8.68-.76,0,1.25-1,1.62-3.47.09-4.3-2.8-11.06-6.9-16.29-8.22-11.27-2.6-8,6.66-.78,14.37C850.93,123.76,853.58,125.9,853.18,126.19ZM647.23,244.94s-3.6-2.94-4.23-2.81-2.1,1.05-2,4.76a38.4,38.4,0,0,0,.66,6.13S642.23,246.54,647.23,244.94Zm5.56-95.05-2.38,23.38c-.06.91,1.53.73,1.56.69s.44,62,.61,62.07c-.05,0,2.8-.72,3-.74,0,0-1.05-53.48,1.11-57.95,1.79.31,5.88,2.8,7,6.11l-.44-8.54-.06-1.08c.67.15,2.23.66,2.07-.61l-4.57-23.7a14.26,14.26,0,0,1,3.94-7.48,16.62,16.62,0,0,1,6.36-3.8c.56-28.55-3.49-59.91-12.87-86.54l-1.62-3.39c-2.62,5.75-4.82,14.3-7,23.33-5.17,19.07-7.76,47.77-7.15,66.34A14.88,14.88,0,0,1,652.79,149.89Zm0-77.46c1.3-5.44,2.54-10.06,3.69-13.92l.65,85.68c.21,6.42.06,15.87.12,22.43-.16-1.88-.05,4-.1,3.85-1-.2-3.32,1.07-3.5-.5L655,153.16c-.11-.26.26-8.58-1.69-10.8-1.84-3.63-5.65-5.68-7.7-6.71C645.33,118.43,647.63,91.3,652.75,72.43ZM666.63,241.1a26.24,26.24,0,0,0-6.17-3.39,42.67,42.67,0,0,0-6.09,0c-2.63.25-5.32.2-7.55-1.35-.23,0-.55-.07-.7.15-.88,1.28,0,2.71.9,3.7,2.06,2.11,3.94,3.46,7.33,3.29,3.39,0,6.77-1.64,9.4.38,1.77,1.61,4.89,4.47,5.48,5.28.84,1.12,1,4.1,1,4.1s2.88-1.68,1.12-8C670.5,243.5,668.21,242.24,666.63,241.1ZM656,253.7c3.92.08,13.18,6.1,13.82,6.56s.68-2.86.6-3.12-.63-2.54-2.2-2.74-4.69-2.65-5.75-3.92-2.35-1.86-2.53-1.52-.86.85-4,.74-6.82,1.12-7.75,2.3a4.36,4.36,0,0,1-2.5,1.42,9.66,9.66,0,0,0-1.45,8.18C645.63,258.28,652.09,253.62,656,253.7Zm7.49,29.44c.22,0,.55,41.64.54,43.11a166.21,166.21,0,0,0,12.59-12.31c-1.23-10.11-3.72-23.2-4.8-25.53-1.6-3.46-4.44-8.92-6-11.46a9.85,9.85,0,0,0-4.21-3.59c-4.44-.39-7.06-4.09-8-4.74s-1.84.43-4.67.84-2.3-2.15-2.3-2.15c1.16.28,6.33-4.15,7.67-4.38s9,2.14,9.28,2.4,2-.31,2-.31c-1.66-1.93-12.77-6.23-13.5-6.67s-4.45,3.32-5.54,5a1.59,1.59,0,0,1-2.52.45s-1.12,2-.16,9.88a24.32,24.32,0,0,0,4.23,7.77,11,11,0,0,0,4.88,5.14c0,3.46.06,8.47.08,12l.18,24.7,2.33-6.48c.23-6.76,0-36.32,0-37.24C657.05,281,662.08,283.14,663.48,283.14Z" transform="translate(-22.86 -29.95)"/><path class="cls-2" d="M2597.21,961.58c-10.06.92-20.74,7.32-45.45,7.32-42.1,0-72.91-31.42-72.91-71.69,0-41.79,29.29-72.9,67.11-72.9,42.1,0,65.59,37.52,65.59,68a53,53,0,0,1-.61,8.23h-97c1.22,22.27,18.61,41.19,43.63,41.19,16.47,0,27.45-2.14,39.65-10.07Zm-21.35-84.5c-1.83-13.12-12.51-27.76-30.2-27.76-16.17,0-27.76,11.9-32,27.76Z" transform="translate(-22.86 -29.95)"/><path class="cls-2" d="M2642.65,966.46c.61-8.84.92-22.88.92-31.42V846.88h-14.65c4.28-6.71,7-13.42,9.77-20.13H2678V846c7.32-12.2,21.66-21.65,40.27-21.65,31.42,0,48.81,22.26,48.81,62.53V935c0,8.54.3,22.58.91,31.42h-36.3c.61-8.84.92-22.88.92-31.42v-48.2c0-23.49-11.9-35.08-26.85-35.08-16.78,0-27.76,13.12-27.76,33.56V935c0,8.54.3,22.58.92,31.42Z" transform="translate(-22.86 -29.95)"/><path class="cls-2" d="M2916.58,961.58c-10.06.92-20.74,7.32-45.45,7.32-42.1,0-72.91-31.42-72.91-71.69,0-41.79,29.29-72.9,67.11-72.9,42.1,0,65.59,37.52,65.59,68a53,53,0,0,1-.61,8.23h-97c1.22,22.27,18.61,41.19,43.63,41.19,16.47,0,27.45-2.14,39.65-10.07Zm-21.35-84.5c-1.83-13.12-12.51-27.76-30.2-27.76-16.17,0-27.76,11.9-32,27.76Z" transform="translate(-22.86 -29.95)"/><path class="cls-2" d="M2963.85,966.46q.92-15.56.92-31.11V846.88h-14.64a110,110,0,0,0,9.46-20.13h36.3v31.42c5.18-20.44,20.43-34.17,37.52-34.17,8.85,0,10.68,1.53,14.64,1.53v36.6a36.61,36.61,0,0,0-20.13-5.79c-17.09,0-28.68,20.74-28.68,39.65v39.36q0,15.55.92,31.11Z" transform="translate(-22.86 -29.95)"/><path class="cls-2" d="M3195.39,826.75a30.34,30.34,0,0,1-14.95,26.54,48.49,48.49,0,0,1,7.63,26.23c0,30.51-27.16,55.83-62.24,55.83-10.37,0-18-4.27-23.79-4.27-5.19,0-9.76,4.88-9.76,12.5a12.83,12.83,0,0,0,12.81,12.51c4,0,11.29-1.83,20.13-1.83,39.05,0,72.61,17.09,72.61,47.28,0,25.32-32.95,45.46-72.91,45.46-39.66,0-71.69-18.61-71.69-44.54,0-14.34,9.46-25,22.27-31.73-9.15-3.66-14.95-14-14.95-24.1,0-11.89,8.85-24.1,22-27.15-10.37-9.15-18.6-22.57-18.6-40,0-30.51,27.15-55.52,61.92-55.52a61.94,61.94,0,0,1,37.53,12.51c2.13-1.83,4-6.11,4-9.76Zm-70.47,197.06c21,0,37.21-8.84,37.21-20.74,0-12.2-17.08-21.35-38.74-21.35-19.52,0-35.69,8.84-35.69,20.74S3103.87,1023.81,3124.92,1023.81Zm.91-115.92c15.25,0,27.46-12.81,27.46-28.37s-12.21-28.07-27.46-28.07-27.45,12.51-27.45,28.07S3110.58,907.89,3125.83,907.89Z" transform="translate(-22.86 -29.95)"/><path class="cls-2" d="M3251.8,826.75c1.83,6.4,4.89,13.72,8.85,22.26l30.81,63.76c9.16-19.83,16.17-36,25.63-61.92a240.23,240.23,0,0,0,7.62-24.1h38.74c-4.88,8.84-11.89,25-14.94,32.33-10.67,25-28.37,65.59-42.1,91.83-12.21,23.18-27.46,48.5-41.18,70.16-11.29,18.61-21.05,23.49-40.88,23.49a31.59,31.59,0,0,1-10.67-2.14c6.4-7.63,13.42-16.78,20.13-26.54,12.81-19.21,27.45-41.49,40-65l-46.07-93.35c-5.79-11.29-11-21.36-16.77-30.81Z" transform="translate(-22.86 -29.95)"/><path class="cls-2" d="M3339.22,421.3h0L3398,179.61,2782.57,30l-32.73,134.59a72.07,72.07,0,1,1-25.77,106l-91.16,374.87L3248.34,795,3291,619.66h0a102.07,102.07,0,0,1,48.24-198.36Zm-203.3,189.07L2817.57,533l3.75-15.42A72.05,72.05,0,1,1,2839,445l56-230.4L3213.33,292Z" transform="translate(-22.86 -29.95)"/><path class="cls-2" d="M3383.26,519.06a72.06,72.06,0,1,1-72.06-72A72.05,72.05,0,0,1,3383.26,519.06Z" transform="translate(-22.86 -29.95)"/><circle class="cls-2" cx="2760.14" cy="196.3" r="48.04"/><path class="cls-2" d="M2818.33,468.3a48,48,0,1,1-48-48A48,48,0,0,1,2818.33,468.3Z" transform="translate(-22.86 -29.95)"/><path class="cls-3" d="M2685.78,125.07A75.13,75.13,0,1,1,2610.65,50,75.13,75.13,0,0,1,2685.78,125.07Z" transform="translate(-22.86 -29.95)"/><path class="cls-2" d="M2654.35,498.12a93.4,93.4,0,1,1-93.4-93.4A93.4,93.4,0,0,1,2654.35,498.12Z" transform="translate(-22.86 -29.95)"/><path class="cls-4" d="M2983.62,349.65a42,42,0,1,1-42-42A42,42,0,0,1,2983.62,349.65Z" transform="translate(-22.86 -29.95)"/><path class="cls-5" d="M3015.14,496.65a42,42,0,1,1-42-42A42,42,0,0,1,3015.14,496.65Z" transform="translate(-22.86 -29.95)"/><path class="cls-5" d="M3115.8,410.28a42,42,0,1,1-42-42A42,42,0,0,1,3115.8,410.28Z" transform="translate(-22.86 -29.95)"/></svg>